<svg xmlns="http://www.w3.org/2000/svg" width="256" height="256" viewBox="0 0 100 100"><rect width="100" height="100" rx="0" fill="#dbddd0"></rect><path d="M20.25 72.41L20.25 72.41Q26.29 72.41 29.39 69.67Q32.49 66.92 32.49 62.60L32.49 62.60Q32.49 58.82 30.11 56.48Q27.72 54.14 22.59 52.61L22.59 52.61L14.77 50.27Q9.00 48.56 5.72 45.23Q2.43 41.90 2.43 36.23L2.43 36.23Q2.43 32.81 3.74 30.06Q5.04 27.32 7.47 25.43Q9.90 23.54 13.28 22.51Q16.65 21.47 20.88 21.47L20.88 21.47Q24.48 21.47 27.59 22.05Q30.70 22.64 32.99 23.68Q35.28 24.71 36.55 25.97Q37.80 27.23 37.80 28.58L37.80 28.58Q37.80 29.84 37.17 30.74Q36.55 31.64 35.55 32.18L35.55 32.18Q33.21 30.38 29.48 29.03Q25.74 27.68 21.15 27.68L21.15 27.68Q15.84 27.68 12.83 29.93Q9.81 32.18 9.81 36.23L9.81 36.23Q9.81 39.38 11.97 41.36Q14.13 43.34 19.18 44.78L19.18 44.78L24.66 46.40Q31.77 48.47 35.87 52.20Q39.96 55.94 39.96 62.60L39.96 62.60Q39.96 69.71 34.84 74.12Q29.70 78.53 20.25 78.53L20.25 78.53Q16.11 78.53 12.74 77.81Q9.37 77.09 6.98 75.92Q4.59 74.75 3.29 73.36Q1.98 71.96 1.98 70.61L1.98 70.61Q1.98 69.08 2.93 68.05Q3.88 67.01 5.13 66.56L5.13 66.56Q6.13 67.55 7.56 68.58Q9.00 69.62 10.89 70.47Q12.79 71.33 15.13 71.87Q17.46 72.41 20.25 72.41ZM90.55 49.37L90.55 49.37Q90.55 43.61 88.79 39.52Q87.03 35.42 84.02 32.81Q81.00 30.20 77 28.98Q73.00 27.77 68.41 27.77L68.41 27.77Q65.53 27.77 63.41 27.95Q61.30 28.13 59.49 28.49L59.49 28.49L59.49 71.33Q61.66 71.87 64.13 72.05Q66.61 72.23 69.22 72.23L69.22 72.23Q79.84 72.23 85.19 66.47Q90.55 60.71 90.55 49.37ZM98.02 49.37L98.02 49.37Q98.02 56.75 95.99 62.20Q93.97 67.64 90.23 71.24Q86.50 74.84 81.19 76.59Q75.88 78.35 69.31 78.35L69.31 78.35Q66.42 78.35 62.83 78.13Q59.23 77.90 55.98 76.91L55.98 76.91Q52.20 75.74 52.20 72.77L52.20 72.77L52.20 26.51Q52.20 25.07 52.92 24.30Q53.64 23.54 55.17 23.09L55.17 23.09Q57.97 22.19 61.48 21.92Q64.98 21.65 68.50 21.65L68.50 21.65Q75.06 21.65 80.51 23.41Q85.95 25.16 89.82 28.63Q93.69 32.09 95.85 37.27Q98.02 42.44 98.02 49.37Z" fill="#fff"></path></svg>