<?xml version="1.0" encoding="utf-8"?>
<!-- Generator: Adobe Illustrator 26.1.0, SVG Export Plug-In . SVG Version: 6.00 Build 0)  -->
<svg version="1.1" xmlns="http://www.w3.org/2000/svg" xmlns:xlink="http://www.w3.org/1999/xlink" x="0px" y="0px"
	 viewBox="0 0 353 260.8" style="enable-background:new 0 0 353 260.8;" xml:space="preserve">
<style type="text/css">
	.st0{fill:#DE6736;}
	.st1{fill:url(#SVGID_1_);}
	.st2{fill:#C1272D;}
	.st3{fill:url(#SVGID_00000166667389578206848890000005741400199521513625_);}
	.st4{fill:url(#SVGID_00000015324573921670187780000002755591612672911789_);}
</style>
<g id="Layer_1">
	<g id="a">
	</g>
	<g id="b">
	</g>
	<g id="c">
	</g>
	<g id="d">
		<g id="e">
			<g id="f">
				<g id="g">
				</g>
			</g>
			<g id="h">
			</g>
			<g id="i">
			</g>
		</g>
	</g>
	<g id="j">
	</g>
	<g id="k">
		<g id="l">
			<g id="m">
				<g>
					<path class="st0" d="M-209.5,215.8l-227.6,0.9c-29,0-62.9-24.1-60.2-44.7V64.6c-1.8-9.8,20.4-48.3,53.2-52.8L-229,4.7
						c29,0,72.6,14.6,72.6,43.8l8.9,96.6C-150.1,206-182.9,213.1-209.5,215.8L-209.5,215.8z"/>
					
						<radialGradient id="SVGID_1_" cx="-352.257" cy="472.6443" r="122.6781" gradientTransform="matrix(1.09 0 0 -1.19 59.7742 675.8375)" gradientUnits="userSpaceOnUse">
						<stop  offset="0.61" style="stop-color:#F9DE4B"/>
						<stop  offset="0.97" style="stop-color:#F5C44C"/>
						<stop  offset="0.98" style="stop-color:#F5C44D"/>
					</radialGradient>
					<path class="st1" d="M-399.1,17.2h149.9c50.8,0,92,41.2,92,92v8.3c0,50.8-41.2,92-92,92h-149.9c-50.8,0-92-41.2-92-92v-8.3
						C-491.1,58.4-450,17.2-399.1,17.2z"/>
				</g>
				<path class="st2" d="M-416.7,92.5c0.5,17.8,0,35.5-1.6,53.2c-0.5,5-1,10-1.6,15c-0.2,1.8,1,4.2,2.2,5.4c1.3,1.3,3.5,2.3,5.3,2.2
					c1.9-0.1,4-0.7,5.4-2.2c1.5-1.6,2-3.3,2.2-5.4c2.2-17.6,3.4-35.4,3.5-53.1c0-5,0-10.1-0.2-15.1c-0.1-4-3.4-7.8-7.6-7.6
					C-413.1,85.1-416.8,88.3-416.7,92.5L-416.7,92.5L-416.7,92.5z"/>
				<path class="st2" d="M-410.1,62.7c3.9,0,7.7-3.5,7.5-7.5c-0.2-4-3.3-7.5-7.5-7.5c-3.9,0-7.7,3.5-7.5,7.5
					C-417.5,59.3-414.3,62.7-410.1,62.7L-410.1,62.7z"/>
				<path class="st2" d="M-306.4,131c7.2,0.2,14.4,0.2,21.6-0.9c3.3-0.5,6.5-1.3,9.6-2.6c3.7-1.5,7.4-3.3,10-6.4
					c3.4-3.9,4.9-8.8,4-13.9c-0.8-4.3-3.9-7.8-7.6-10c-3-1.8-6.4-3-9.8-4c-3.5-1.1-7.3-1.8-11-1.8c-7.3-0.2-14.5,2.5-19.6,7.8
					c-4.2,4.4-7,10.3-8.1,16.3c-2.6,13.8,1,29.1,10.8,39.3c5.6,5.9,13.1,9.5,21.1,10.4c4.1,0.4,8.5-0.4,12.1-2.5
					c1.7-1,3.2-2.3,4.5-3.8c0.5-0.6,0.9-1.1,1.4-1.6c0.2-0.3,0.5-0.5,0.7-0.8c0.6-0.5,0.3-0.3-0.7,0.6c0.2-0.1,0.4-0.2,0.6-0.3
					l-1.8,0.8c0.2-0.1,0.4-0.2,0.6-0.2c3.8-1.2,6.6-5.3,5.3-9.4c-1.2-3.8-5.3-6.7-9.3-5.3c-2.8,0.9-5,2.6-6.9,4.9
					c-0.6,0.7-1.1,1.4-1.8,2c-0.6,0.5-0.4,0.3,0.7-0.5c-0.2,0.1-0.4,0.3-0.6,0.4c-0.4,0.2-0.9,0.5-1.3,0.7l1.8-0.8
					c-1,0.4-2.1,0.7-3.2,0.9l2-0.3c-1.6,0.2-3.2,0.2-4.9,0l2,0.3c-2.1-0.3-4.1-0.9-6-1.7l1.8,0.8c-1.7-0.8-3.3-1.6-4.8-2.7
					c-0.3-0.2-0.6-0.5-1-0.7c1.9,1.2,0.7,0.6,0.3,0.2c-0.7-0.6-1.4-1.2-2-1.9c-0.6-0.6-1.2-1.3-1.7-1.9c-1.1-1.4,0.9,1.3,0.1,0.1
					c-0.2-0.4-0.5-0.7-0.7-1.1c-1.1-1.7-2.1-3.5-2.9-5.4l0.8,1.8c-1.4-3.3-2.2-6.7-2.7-10.2l0.3,2c-0.4-3.3-0.5-6.6-0.1-9.9l-0.3,2
					c0.4-2.7,1-5.4,2.1-7.9l-0.8,1.8c0.5-1.2,1.1-2.3,1.7-3.4c0.3-0.5,0.6-1,1-1.4c0.8-1.1-1.2,1.5-0.4,0.5c0.2-0.2,0.4-0.4,0.5-0.6
					c0.4-0.4,0.8-0.8,1.2-1.2c0.2-0.2,0.4-0.4,0.6-0.6c1-0.9-1.6,1.1-0.5,0.4s2.2-1.4,3.4-1.9l-1.8,0.8c1.6-0.6,3.2-1.1,4.9-1.3
					l-2,0.3c2.1-0.2,4.2-0.2,6.4,0.1l-2-0.3c3.9,0.5,7.6,1.7,11.2,3.2l-1.8-0.8c1.2,0.5,2.3,1.2,3.5,1.8c0.6,0.4-1.4-1.3-0.5-0.4
					c0.2,0.2,0.4,0.4,0.6,0.6c0.6,0.6-1-1.6-0.4-0.5c0.2,0.3,0.4,0.7,0.5,1l-0.8-1.8c0.2,0.5,0.3,1,0.4,1.5l-0.3-2
					c0.1,0.7,0.1,1.3,0,1.9l0.3-2c-0.1,0.8-0.3,1.5-0.6,2.3l0.8-1.8c-0.2,0.4-0.3,0.7-0.5,1.1c-0.4,0.7-1,0.9,0.3-0.3
					c-0.3,0.3-0.5,0.6-0.8,0.9c-0.6,0.6-1.3,0.7,0.3-0.2c-1.4,0.8-2.7,1.7-4.2,2.4l1.8-0.8c-3.5,1.4-7.1,2.3-10.8,2.8l2-0.3
					c-6.2,0.8-12.4,0.7-18.7,0.5c-4-0.1-7.7,3.6-7.6,7.6C-313.7,127.6-310.6,130.9-306.4,131L-306.4,131L-306.4,131z"/>
				<g>
					<path class="st2" d="M-255.7,102.9c-1,8.8,0.4,17.6,1.5,26.3s1.8,17.7,2,26.5c0.1,4,3.4,7.8,7.6,7.6s7.7-3.4,7.6-7.6
						c-0.2-8.9-0.9-17.7-2-26.5s-2.5-17.5-1.5-26.3c0.2-1.8-1-4.2-2.2-5.4c-1.3-1.3-3.5-2.3-5.4-2.2s-4,0.7-5.4,2.2
						C-254.9,99-255.4,100.7-255.7,102.9L-255.7,102.9L-255.7,102.9z"/>
					<path class="st2" d="M-240.4,118.2c0.2-0.2,1.6-1.3,0.5-0.5s0.2-0.1,0.4-0.3c0.7-0.5,1.5-1,2.3-1.5c1.5-0.9,3.2-1.8,4.8-2.5
						l-1.8,0.8c3-1.2,6.1-2.1,9.2-2.6l-2,0.3c2.8-0.4,5.5-0.4,8.3,0l-2-0.3c2.1,0.3,4.1,0.8,6.1,1.7l-1.8-0.8c1,0.4,1.9,0.9,2.8,1.4
						c0.3,0.2,1.7,1.2,0.6,0.3s0.4,0.3,0.6,0.6c0.4,0.3,0.7,0.7,1,1.1c0,0.1,0.4,0.6,0.5,0.6c-0.1,0-1.1-1.5-0.5-0.6
						c0.6,1,1.2,2.1,1.7,3.2l-0.8-1.8c1.1,2.7,1.7,5.4,2.1,8.3l-0.3-2c1.3,9.8,1.5,19.8,1.4,29.7c0,4,3.5,7.8,7.6,7.6
						c4.1-0.2,7.5-3.4,7.6-7.6c0-7.1-0.2-14.1-0.6-21.2c-0.5-7.1-1-14.1-3.9-20.7c-2.8-6.5-8.5-10.9-14.9-13.3
						c-6.1-2.3-12.9-2.1-19.2-0.9c-7.6,1.5-14.5,5.2-20.3,10.2c-1.4,1.2-2.2,3.6-2.2,5.4s0.8,4.1,2.2,5.4s3.3,2.3,5.4,2.2
						S-242,119.6-240.4,118.2L-240.4,118.2L-240.4,118.2z"/>
				</g>
				<g>
					<g>
						<path class="st2" d="M-348.8,87.7c-13.2,10-25.5,21.2-36.4,33.7c-3,3.4-5.9,7-8.7,10.6c-1.7,2.2-2.7,4.6-1.9,7.4
							s2.8,4.3,5.3,5.3c0.5,0.2,1,0.4,1.5,0.6l-1.8-0.8c13.4,5.7,24.3,15.8,36.5,23.5c3.5,2.2,7.1,4.1,10.8,5.8
							c1.9,0.9,3.7,1.4,5.8,0.8c1.8-0.5,3.6-1.9,4.5-3.5c0.9-1.8,1.4-3.9,0.8-5.9c-0.6-1.8-1.7-3.8-3.5-4.6
							c-13.9-6.1-25-16.7-37.9-24.4c-4.1-2.4-8.3-4.5-12.7-6.2l3.3,12.8c9.7-12.6,20.6-24.1,32.7-34.4c1.6-1.4,3.3-2.8,5-4.2
							c0.5-0.4,0.9-0.8,1.4-1.1c0.2-0.1,0.4-0.3,0.5-0.4c0.8-0.6-0.2,0.2-0.5,0.4c0.9-0.8,1.9-1.5,2.9-2.2c1.6-1.2,2.9-2.5,3.5-4.6
							c0.5-1.8,0.3-4.3-0.8-5.9s-2.6-3.1-4.5-3.5C-344.9,86.5-347.2,86.5-348.8,87.7L-348.8,87.7L-348.8,87.7z"/>
						<path class="st2" d="M-344.4,90.8c0.7,14.7,1.4,29.4,2.1,44.1c0.6,14.4,0.7,28.7-0.2,43c-0.5,8.2-1.3,16.3-2.4,24.4l0.3-2
							c-0.3,2-0.6,4-0.9,5.9c-0.3,2.1-0.4,4,0.8,5.9c0.9,1.6,2.7,3.1,4.5,3.5c1.9,0.4,4.1,0.4,5.8-0.8c1.5-1,3.2-2.6,3.5-4.6
							c2.4-15.7,3.8-31.5,4.1-47.4c0.3-15.2-0.6-30.5-1.3-45.7l-1.2-26.4c-0.2-4-3.4-7.8-7.6-7.6C-340.7,83.3-344.6,86.5-344.4,90.8
							L-344.4,90.8L-344.4,90.8z"/>
						<path class="st2" d="M-343,187.8c-0.4,7.8-1,15.6-2.1,23.3l0.3-2c-0.7,5.1-1.5,10.2-2.5,15.2c-0.8,4-1.5,8-3.1,11.8l0.8-1.8
							c-0.4,0.9-0.8,1.7-1.2,2.5c-0.2,0.4-0.5,0.8-0.7,1.1c-0.1,0.2-0.2,0.4-0.4,0.6c-0.4,0.6-0.3,0.4,0.6-0.8
							c-0.6,0.6-1.2,1.2-1.8,1.8c1.8-1.6,0.9-0.7,0.2-0.3c-0.4,0.2-0.8,0.4-1.1,0.6l1.8-0.8c-0.9,0.3-1.7,0.6-2.6,0.7l2-0.3
							c-3.5,0.4-7.1-0.3-10.6-0.7l-11-1.2l-21.9-2.4c-1.8-0.2-4.1,1-5.4,2.2c-1.3,1.3-2.3,3.5-2.2,5.4s0.7,4,2.2,5.4
							c1.6,1.4,3.2,2,5.4,2.2l23.9,2.6l12,1.3c4,0.4,8,0.9,11.9-0.4c7.4-2.7,11.5-9.4,13.8-16.7c1-3.2,1.6-6.5,2.2-9.8
							c0.7-3.8,1.3-7.5,1.9-11.3c1.4-9.4,2.3-18.8,2.8-28.3c0.2-4-3.6-7.8-7.6-7.6C-339.7,180.4-342.8,183.5-343,187.8L-343,187.8
							L-343,187.8z"/>
					</g>
					<path class="st2" d="M-346.4,89.9c3.1-1.6,6.3-3.8,9.8-3.9c0.8,0,1.5-0.7,1.5-1.5s-0.7-1.6-1.5-1.5c-4.1,0.1-7.8,2.4-11.3,4.3
						c-0.7,0.4-0.9,1.4-0.5,2.1C-348.1,90.1-347.1,90.3-346.4,89.9L-346.4,89.9L-346.4,89.9z"/>
				</g>
			</g>
		</g>
	</g>
	<g id="o">
	</g>
	<g id="p">
	</g>
	<g id="q">
	</g>
	<g id="r">
	</g>
	<g id="s">
	</g>
	<g id="t">
		<g id="u">
		</g>
	</g>
	<g id="v">
	</g>
</g>
<g id="Layer_2">
	<g id="k_00000171687140822150946720000006806683759770800808_">
		<g id="l_00000067925851956346041100000017231708770911071148_">
			<g id="m_00000171698665633814727880000015798216122507916216_">
				<g>
					<path class="st0" d="M290.7,222.5L63,223.4c-29,0-62.9-24.1-60.2-44.7V71.3C1,61.5,23.2,23,55.9,18.6l215.2-7.2
						c29,0,72.6,14.6,72.6,43.8l8.9,96.6C350,212.7,317.2,219.8,290.7,222.5L290.7,222.5z"/>
					
						<radialGradient id="SVGID_00000034783499908454725700000000159176340126851733_" cx="106.5885" cy="467.0255" r="122.6781" gradientTransform="matrix(1.09 0 0 -1.19 59.7742 675.8375)" gradientUnits="userSpaceOnUse">
						<stop  offset="0.61" style="stop-color:#F9DE4B"/>
						<stop  offset="0.97" style="stop-color:#F5C44C"/>
						<stop  offset="0.98" style="stop-color:#F5C44D"/>
					</radialGradient>
					<path style="fill:url(#SVGID_00000034783499908454725700000000159176340126851733_);" d="M101,23.9h149.9c50.8,0,92,41.2,92,92
						v8.3c0,50.8-41.2,92-92,92H101c-50.8,0-92-41.2-92-92v-8.3C9,65.1,50.2,23.9,101,23.9z"/>
				</g>
			</g>
		</g>
	</g>
</g>
<g id="Layer_3">
	<g id="k_00000115502379564630723130000005395940581456309647_">
		<g id="l_00000053519228262268684350000006937822484538467215_">
			<g id="m_00000085213119291843261740000016680209260203300498_">
				<g>
					<path class="st0" d="M291.2,581.1L63.6,582c-29,0-62.9-24.1-60.2-44.7V430c-1.8-9.8,20.4-48.3,53.2-52.8l215.2-7.2
						c29,0,72.6,14.6,72.6,43.8l8.9,96.6C350.6,571.3,317.8,578.5,291.2,581.1L291.2,581.1z"/>
					
						<radialGradient id="SVGID_00000119090482567499149590000016088425800079967931_" cx="107.0939" cy="165.6439" r="122.6781" gradientTransform="matrix(1.09 0 0 -1.19 59.7742 675.8375)" gradientUnits="userSpaceOnUse">
						<stop  offset="0.61" style="stop-color:#F9DE4B"/>
						<stop  offset="0.97" style="stop-color:#F5C44C"/>
						<stop  offset="0.98" style="stop-color:#F5C44D"/>
					</radialGradient>
					<path style="fill:url(#SVGID_00000119090482567499149590000016088425800079967931_);" d="M101.6,382.6h149.9
						c50.8,0,92,41.2,92,92v8.3c0,50.8-41.2,92-92,92H101.6c-50.8,0-92-41.2-92-92v-8.3C9.6,423.8,50.7,382.6,101.6,382.6z"/>
				</g>
				<path class="st2" d="M84,457.9c0.5,17.8,0,35.5-1.6,53.2c-0.5,5-1,10-1.6,15c-0.2,1.8,1,4.2,2.2,5.4c1.3,1.3,3.5,2.3,5.3,2.2
					c1.9-0.1,4-0.7,5.3-2.2c1.4-1.6,1.9-3.3,2.2-5.4c2.2-17.6,3.4-35.4,3.5-53.1c0-5-0.1-10.1-0.2-15.1c-0.1-4-3.4-7.8-7.6-7.6
					C87.6,450.4,83.9,453.6,84,457.9L84,457.9L84,457.9z"/>
				<path class="st2" d="M90.6,428.1c3.9,0,7.7-3.4,7.5-7.5c-0.2-4-3.3-7.5-7.5-7.5c-3.9,0-7.7,3.5-7.5,7.5
					C83.2,424.6,86.4,428.1,90.6,428.1L90.6,428.1z"/>
				<path class="st2" d="M194.3,496.3c7.2,0.2,14.4,0.2,21.6-0.9c3.3-0.5,6.5-1.3,9.6-2.6c3.7-1.5,7.4-3.3,10-6.4
					c3.4-3.9,4.9-8.8,4-14c-0.8-4.3-3.9-7.8-7.6-10c-3-1.8-6.4-3-9.8-4c-3.5-1.1-7.3-1.8-11-1.8c-7.3-0.2-14.5,2.5-19.6,7.8
					c-4.2,4.4-7,10.3-8.1,16.3c-2.6,13.8,1,29.1,10.8,39.3c5.6,5.9,13.1,9.5,21.1,10.4c4.1,0.4,8.5-0.4,12.1-2.5
					c1.7-1,3.2-2.3,4.5-3.8c0.5-0.5,0.9-1.1,1.4-1.7c0.2-0.3,0.5-0.5,0.7-0.8c0.6-0.5,0.3-0.3-0.7,0.6c0.2-0.1,0.4-0.2,0.6-0.3
					l-1.8,0.8c0.2-0.1,0.4-0.2,0.6-0.2c3.8-1.2,6.6-5.3,5.3-9.4c-1.2-3.8-5.3-6.7-9.3-5.3c-2.8,0.9-5,2.6-6.9,4.9
					c-0.6,0.7-1.1,1.3-1.8,2c-0.6,0.5-0.4,0.3,0.7-0.5c-0.2,0.1-0.4,0.3-0.6,0.4c-0.4,0.2-0.9,0.5-1.3,0.7l1.8-0.8
					c-1,0.4-2.1,0.7-3.2,0.9l2-0.3c-1.6,0.2-3.2,0.2-4.9,0l2,0.3c-2.1-0.3-4.1-0.9-6-1.7l1.8,0.8c-1.7-0.8-3.3-1.6-4.8-2.7
					c-0.3-0.2-0.6-0.5-1-0.7c1.9,1.3,0.7,0.6,0.3,0.2c-0.7-0.6-1.4-1.2-2-1.9c-0.6-0.6-1.2-1.3-1.7-1.9c-1.1-1.4,0.9,1.3,0.1,0.1
					c-0.2-0.4-0.5-0.7-0.7-1c-1.1-1.7-2.1-3.5-2.9-5.4l0.8,1.8c-1.4-3.3-2.2-6.7-2.7-10.2l0.3,2c-0.4-3.3-0.5-6.6-0.1-9.9l-0.3,2
					c0.4-2.7,1-5.4,2.1-7.9l-0.8,1.8c0.5-1.2,1.1-2.3,1.7-3.4c0.3-0.5,0.6-1,0.9-1.4c0.8-1.1-1.2,1.5-0.4,0.5
					c0.2-0.2,0.4-0.4,0.6-0.6c0.4-0.4,0.8-0.8,1.2-1.2c0.2-0.2,0.4-0.4,0.6-0.6c1-0.9-1.6,1.1-0.5,0.4c1.1-0.7,2.2-1.4,3.4-1.9
					l-1.8,0.8c1.6-0.6,3.2-1.1,4.9-1.3l-2,0.3c2.1-0.2,4.2-0.2,6.4,0.1l-2-0.3c3.9,0.5,7.6,1.7,11.2,3.2l-1.8-0.8
					c1.2,0.5,2.3,1.2,3.5,1.8c0.6,0.4-1.4-1.3-0.5-0.4c0.2,0.2,0.4,0.4,0.6,0.6c0.6,0.6-0.9-1.6-0.4-0.5c0.2,0.3,0.4,0.6,0.5,1
					l-0.8-1.8c0.2,0.5,0.3,1,0.4,1.5l-0.3-2c0.1,0.6,0.1,1.3,0,1.9l0.3-2c-0.1,0.8-0.3,1.5-0.6,2.3l0.8-1.8c-0.2,0.4-0.3,0.7-0.5,1
					c-0.4,0.7-1,0.9,0.3-0.3c-0.3,0.3-0.5,0.6-0.8,0.9c-0.6,0.6-1.3,0.7,0.3-0.1c-1.4,0.8-2.7,1.7-4.2,2.4l1.8-0.8
					c-3.5,1.4-7.1,2.3-10.8,2.8l2-0.3c-6.2,0.8-12.4,0.7-18.7,0.5c-4-0.1-7.7,3.6-7.6,7.6C187,493,190.1,496.2,194.3,496.3
					L194.3,496.3L194.3,496.3z"/>
				<g>
					<path class="st2" d="M245,468.2c-0.9,8.8,0.4,17.6,1.5,26.3s1.8,17.7,2,26.5c0.1,4,3.4,7.8,7.6,7.6c4.1-0.2,7.7-3.4,7.6-7.6
						c-0.2-8.9-0.9-17.7-2-26.5c-1.1-8.8-2.5-17.5-1.5-26.3c0.2-1.8-1-4.2-2.2-5.4c-1.3-1.3-3.5-2.3-5.3-2.2c-1.9,0.1-4,0.7-5.4,2.2
						C245.8,464.4,245.3,466.1,245,468.2L245,468.2L245,468.2z"/>
					<path class="st2" d="M260.3,483.6c0.2-0.2,1.6-1.3,0.5-0.5c-1.1,0.9,0.2-0.1,0.4-0.3c0.7-0.5,1.5-1,2.3-1.5
						c1.5-1,3.2-1.8,4.8-2.5l-1.8,0.8c3-1.2,6.1-2.1,9.2-2.6l-2,0.3c2.8-0.4,5.5-0.4,8.3,0l-2-0.3c2.1,0.3,4.1,0.9,6.1,1.7l-1.8-0.8
						c1,0.4,1.9,0.9,2.8,1.4c0.3,0.2,1.7,1.2,0.6,0.3c-1.1-0.9,0.4,0.3,0.6,0.6c0.4,0.3,0.7,0.7,1,1.1c0,0.1,0.4,0.6,0.5,0.6
						c-0.1,0-1.1-1.5-0.5-0.6c0.6,1,1.2,2.1,1.7,3.2l-0.8-1.8c1.1,2.7,1.7,5.4,2.1,8.3l-0.3-2c1.3,9.8,1.5,19.8,1.4,29.7
						c0,4,3.5,7.8,7.6,7.6c4.1-0.2,7.5-3.3,7.6-7.6c0-7.1-0.2-14.1-0.6-21.1c-0.5-7.1-1-14.1-3.9-20.7c-2.8-6.5-8.5-10.9-14.9-13.3
						c-6.1-2.3-12.9-2.1-19.2-0.9c-7.6,1.5-14.5,5.2-20.3,10.2c-1.4,1.2-2.2,3.6-2.2,5.4c0,1.8,0.8,4.1,2.2,5.4s3.3,2.3,5.4,2.2
						S258.7,484.9,260.3,483.6L260.3,483.6L260.3,483.6z"/>
				</g>
				<g>
					<g>
						<path class="st2" d="M151.9,453c-13.2,10-25.5,21.2-36.4,33.7c-3,3.4-5.9,7-8.7,10.6c-1.7,2.2-2.7,4.5-1.9,7.4
							s2.8,4.3,5.3,5.3c0.5,0.2,1,0.4,1.5,0.6l-1.8-0.8c13.4,5.7,24.3,15.8,36.5,23.5c3.5,2.2,7.1,4.2,10.8,5.8
							c1.9,0.9,3.7,1.4,5.8,0.8c1.8-0.5,3.6-1.9,4.5-3.5c0.9-1.8,1.4-3.9,0.8-5.9c-0.6-1.8-1.7-3.8-3.5-4.6
							c-13.9-6.1-25-16.7-37.9-24.4c-4.1-2.4-8.3-4.5-12.7-6.2l3.3,12.8c9.7-12.6,20.6-24.1,32.7-34.4c1.6-1.4,3.3-2.8,5-4.1
							c0.5-0.4,0.9-0.8,1.4-1.1c0.2-0.1,0.4-0.3,0.5-0.4c0.8-0.6-0.2,0.2-0.5,0.4c0.9-0.8,1.9-1.5,2.9-2.2c1.6-1.2,2.9-2.5,3.5-4.6
							c0.5-1.8,0.3-4.3-0.8-5.9s-2.6-3.1-4.5-3.5S153.5,451.8,151.9,453L151.9,453L151.9,453z"/>
						<path class="st2" d="M156.3,456.1c0.7,14.7,1.4,29.4,2.1,44.1c0.6,14.3,0.7,28.7-0.2,43c-0.5,8.2-1.3,16.3-2.4,24.4l0.3-2
							c-0.3,2-0.6,4-0.9,6c-0.3,2.1-0.4,4,0.8,5.9c0.9,1.6,2.7,3.1,4.5,3.5c1.9,0.5,4.1,0.3,5.8-0.8c1.5-1,3.2-2.6,3.5-4.6
							c2.4-15.7,3.8-31.5,4.1-47.4c0.3-15.2-0.6-30.5-1.3-45.7l-1.2-26.4c-0.2-4-3.4-7.8-7.6-7.6C160,448.6,156.1,451.8,156.3,456.1
							L156.3,456.1L156.3,456.1z"/>
						<path class="st2" d="M157.7,553.1c-0.4,7.8-1.1,15.6-2.1,23.3l0.3-2c-0.7,5.1-1.5,10.2-2.5,15.2c-0.8,4-1.5,8-3.1,11.8
							l0.8-1.8c-0.4,0.9-0.8,1.7-1.2,2.5c-0.2,0.4-0.4,0.8-0.7,1.2c-0.1,0.2-0.2,0.4-0.4,0.5c-0.4,0.6-0.3,0.4,0.6-0.8
							c-0.6,0.6-1.2,1.2-1.8,1.8c1.8-1.6,0.9-0.7,0.2-0.3c-0.4,0.2-0.8,0.4-1.1,0.6l1.8-0.8c-0.9,0.3-1.7,0.6-2.6,0.7l2-0.3
							c-3.5,0.4-7.1-0.3-10.6-0.7l-11-1.2l-21.9-2.4c-1.8-0.2-4.1,1-5.3,2.2c-1.3,1.3-2.3,3.5-2.2,5.4c0.1,1.9,0.7,4,2.2,5.4
							c1.6,1.5,3.2,2,5.3,2.2l23.9,2.6l12,1.3c4,0.4,8,1,11.9-0.5c7.4-2.7,11.6-9.4,13.8-16.7c1-3.2,1.6-6.5,2.2-9.8
							c0.7-3.8,1.3-7.5,1.9-11.3c1.4-9.4,2.3-18.8,2.8-28.3c0.2-4-3.6-7.8-7.6-7.6C161,545.7,157.9,548.9,157.7,553.1L157.7,553.1
							L157.7,553.1z"/>
					</g>
					<path class="st2" d="M154.3,455.3c3.1-1.6,6.3-3.8,9.8-3.9c0.8,0,1.5-0.7,1.5-1.5s-0.7-1.5-1.5-1.5c-4.1,0.1-7.8,2.4-11.3,4.3
						c-0.7,0.4-0.9,1.4-0.5,2.1C152.6,455.5,153.6,455.7,154.3,455.3L154.3,455.3L154.3,455.3z"/>
				</g>
			</g>
		</g>
	</g>
</g>
</svg>
