<?xml version="1.0" encoding="utf-8"?>
<!-- Generator: Adobe Illustrator 26.1.0, SVG Export Plug-In . SVG Version: 6.00 Build 0)  -->
<svg version="1.1" id="Layer_1" xmlns="http://www.w3.org/2000/svg" xmlns:xlink="http://www.w3.org/1999/xlink" x="0px" y="0px"
	 viewBox="0 0 140 160" style="enable-background:new 0 0 140 160;" xml:space="preserve">
<style type="text/css">
	.st0{fill:#666666;}
	.st1{fill:#0081BF;}
	.st2{fill:#FFFFFF;}
	.st3{fill:#F2D0DE;stroke:#000000;stroke-width:0.5;stroke-miterlimit:10;}
	.st4{fill:#F2D0DE;}
	.st5{fill:#F2F2F2;}
</style>
<g id="a">
</g>
<g id="b">
	<g>
		<path class="st0" d="M103.8,112.9C98,96.3,95.5,82.4,85.2,73.1c12.4-5.7,20.5-15.2,20.5-26c0-9.6-6.4-18.1-16.6-24
			c-0.4-0.8-0.8-1.6-1.3-2.3c3.1-3.5,4.3-9.4,4.3-14c0-7-8.3-3.1-15.8,0c-2.2,0.9-3.7,1.5-4.6,1.9c-4.3-1.5-9.1-2.4-14.2-2.4
			S48,7.1,43.8,8.6c-3.3-3.5-8.7-7.5-11.1-8.4c-5-1.9-6.9,12.4-4.5,17c0.3,0.5,0.5,1,0.7,1.4c-1.1,1.3-2,2.8-2.7,4.2
			C15.8,28.7,9.2,37.4,9.2,47.1c0,10.9,8.4,20.6,21.2,26.3c-9,9.6-15.4,23.7-19,37.7C4,140.1,15,158.7,59.7,160
			C84.8,160.7,115.4,146.1,103.8,112.9L103.8,112.9z"/>
		<g>
			<ellipse class="st1" cx="44.7" cy="35.7" rx="11.6" ry="10.3"/>
			<ellipse class="st1" cx="72.1" cy="35.1" rx="11.6" ry="10.3"/>
			<ellipse cx="48.4" cy="34.1" rx="6" ry="5.8"/>
			<ellipse cx="75.8" cy="33.2" rx="6" ry="5.8"/>
			<ellipse class="st2" cx="50.6" cy="32.1" rx="1.1" ry="1.3"/>
			<ellipse class="st2" cx="79.1" cy="30.8" rx="1.1" ry="1.3"/>
			<ellipse class="st2" cx="49.3" cy="34.1" rx="0.5" ry="0.5"/>
			<ellipse class="st2" cx="78.1" cy="32.9" rx="0.5" ry="0.5"/>
		</g>
		<g>
			<path d="M59.5,53c-0.5,3.5-1.5,7.4-4.5,9.8c-1.5,1.1-3.2,1.5-5,1.6c-1.9,0.1-3.9,0-5.6-0.9c-1.2-0.7-2.3,1.2-1.1,1.9
				c2,1.1,4.3,1.4,6.5,1.2s4.3-0.5,6.1-1.8c3.7-2.6,5-7,5.7-11.2c0.1-0.6-0.2-1.2-0.8-1.3C60.3,52.1,59.5,52.4,59.5,53L59.5,53
				L59.5,53z"/>
			<path d="M58,59.9c1.7,2.6,4.5,4.3,7.5,4.8c1.5,0.2,3.1,0.2,4.5-0.2c1.9-0.5,3.7-1.6,5.5-2.4c1.3-0.6,0.2-2.5-1.1-1.9
				c-2.7,1.3-5.3,2.8-8.3,2.5c-2.5-0.3-4.9-1.7-6.2-3.8C59.1,57.7,57.2,58.8,58,59.9L58,59.9L58,59.9z"/>
		</g>
		<path class="st3" d="M67.9,47.9c0,1.8-4.5,5.4-7.1,5.4c-3.7,0-9-2.8-9-4.6s2.6-2.7,6.8-3.3C62.2,44.8,67.9,46,67.9,47.9L67.9,47.9
			z"/>
		<path class="st4" d="M90.3,12.2c0.4-2,2.1-10.6-3.9-3.7c-1.5,1.7-1.6,1.7-3.9,3.7c-4.1,3.5-1.1,5.8,1.6,7.5
			C85.9,20.8,88.8,20.2,90.3,12.2z"/>
		<path class="st4" d="M40.6,8.8c2.7,2.6,0.4,3.5-2.8,4.9c-2.8,1.3-3.4,2.8-4.2-3.8c-0.5-4.1-2.1-4.7-1.5-6.5C33,1,38.7,7,40.6,8.8z
			"/>
		<path d="M116.4,33.5c-12.9,2.8-25.2,7.7-36.3,14.7c-1.2,0.7-0.1,2.6,1.1,1.9c11-6.8,23.1-11.7,35.8-14.4
			C118.3,35.3,117.8,33.2,116.4,33.5L116.4,33.5L116.4,33.5z"/>
		<path d="M81.8,53.7c11.2-4,22.9-6.2,34.8-6.5c1.4,0,1.4-2.2,0-2.2c-12.1,0.3-24,2.5-35.4,6.6C79.9,52,80.4,54.1,81.8,53.7
			L81.8,53.7L81.8,53.7z"/>
		<path d="M82.2,57.5c11.8-1.3,22.5,4.7,32.4,10.3c1.2,0.7,2.3-1.2,1.1-1.9C105.6,60.1,94.4,54,82.2,55.3
			C80.8,55.5,80.8,57.7,82.2,57.5L82.2,57.5L82.2,57.5z"/>
		<path d="M39,50.1c-12.3-3.6-25.1-5.4-37.9-5.4c-1.4,0-1.4,2.2,0,2.2c12.6,0,25.2,1.8,37.3,5.3C39.7,52.6,40.3,50.5,39,50.1
			L39,50.1L39,50.1z"/>
		<path d="M37.8,53.4c-12-1.6-24.5-2.8-36.2,1c-1.3,0.4-0.8,2.5,0.6,2.1c11.3-3.6,23.4-2.5,35-1c0.6,0.1,1.2-0.1,1.4-0.8
			C38.8,54.2,38.5,53.4,37.8,53.4L37.8,53.4L37.8,53.4z"/>
		<path d="M37.2,57.9c-5.2,0.1-10.2,2-15,3.7c-4.9,1.7-9.7,3.6-14.2,6.1c-1.2,0.7-0.1,2.6,1.1,1.9c4.3-2.5,9-4.3,13.7-5.9
			s9.4-3.6,14.4-3.7C38.6,60,38.6,57.9,37.2,57.9L37.2,57.9L37.2,57.9z"/>
		<path class="st5" d="M84.6,116.4c6.1,25.1-11.4,30.2-25.5,30.2s-32-2.5-25.5-30.2c3.8-16.2,11.4-30.2,25.5-30.2
			S80.6,100.2,84.6,116.4z"/>
		<path class="st0" d="M99.7,142c0,0,15.7,3.5,20.2-4.7c4.7-8.5,3.2-7.3-1.6-17.4c-2.5-5.2,0.4-11.7,3.2-15
			c2.6-3,8.1-13.1,15.8-10.9c7.9,2.2-4.8,7.4-6.5,8.2c-0.6,0.3-1.3,1.6-1.6,1.9c-2,1.9-4.5,7.7-4.8,11.1s3.3,10.9,4.5,13.3
			c4.2,7.9-6,19.6-14.9,20.5c-10.5,1.1-18.6,0.5-18.4-0.6S99.7,142,99.7,142L99.7,142z"/>
		<path class="st2" d="M132.2,94.2l-0.9,0.6c-0.7,0.5-0.9,1.4-0.4,2.1l0.1,0.1c0.5,0.7,1.4,0.8,2.1,0.3l0.9-0.6
			c0.7-0.5,0.9-1.4,0.4-2.1l-0.1-0.1C133.8,93.9,132.9,93.8,132.2,94.2z"/>
		<path class="st0" d="M137.4,93.8c-1.4-0.3-4.2-0.2-4.8,0.3c-0.2,0-0.4,0.1-0.5,0.1l-0.9,0.4c0,0-0.1,0-0.1,0
			c-0.2,0-0.4,0.1-0.6,0.3l-0.8,0.6c-0.4,0.3-0.7,0.6-0.9,0.8l-1.5,1.2c-1,1.3-1,0.3,1.3,2.7l1,1.2c0.6,0.7,0.3,1.5,2.5,0.2l2.3-1
			c1.2-0.6,1.9-1,2.3-1.3l1.2-0.6C140,97.3,141.5,94.9,137.4,93.8L137.4,93.8z"/>
	</g>
</g>
<g id="c">
</g>
<g id="d">
	<g id="e">
		<g id="f">
			<g id="g">
			</g>
		</g>
		<g id="h">
		</g>
		<g id="i">
		</g>
	</g>
</g>
<g id="j">
</g>
<g id="k">
	<g id="l">
	</g>
</g>
<g id="m">
</g>
<g id="n">
</g>
<g id="o">
</g>
<g id="p">
</g>
<g id="q">
</g>
<g id="r">
	<g id="s">
	</g>
</g>
<g id="t">
</g>
</svg>
