<?xml version="1.0" encoding="UTF-8"?><svg xmlns="http://www.w3.org/2000/svg" viewBox="0 0 92 74.81"><defs><style>.v{fill:#d83a34;}</style></defs><g id="a"/><g id="b"/><g id="c"/><g id="d"><g id="e"><g id="f"><g id="g"/></g><g id="h"/><g id="i"/></g></g><g id="j"/><g id="k"><g id="l"/></g><g id="m"><path id="n" class="v" d="M92,22.8c0-12.59-10.75-22.8-24-22.8-9.91,0-18.42,5.71-22.08,13.86C41.81,6.56,33.71,1.6,24.4,1.6,10.92,1.6,0,11.99,0,24.8c0,5.86,3.86,12.46,8.62,17.33,.98,1.84,4.76,5.88,13.4,13.91l18.34,16.35c3.94,3.51,10.04,3.16,13.55-.78l16.29-18.28c7.63-8.2,12.24-13.43,14.73-16.62,3.97-4.1,7.06-9.06,7.06-13.91Z"/></g><g id="o"/><g id="p"/><g id="q"/><g id="r"/><g id="s"><g id="t"/></g><g id="u"/></svg>