<?xml version="1.0" encoding="UTF-8"?><svg id="Layer_1" xmlns="http://www.w3.org/2000/svg" viewBox="0 0 172.19 94.38"><defs><style>.cls-1{fill:#1d1d1b;}.cls-2{stroke-width:.5px;}.cls-2,.cls-3{fill:#8a8d79;stroke:#1d1d1b;stroke-miterlimit:10;}.cls-4{font-family:Avenir-Heavy, Avenir;font-size:18px;letter-spacing:0em;}.cls-5{font-family:Avenir-Roman, Avenir;font-size:16px;letter-spacing:0em;}</style></defs><g><rect class="cls-2" x="27.79" y="1.34" width="50" height="50" rx="25" ry="25" transform="translate(-1.66 49.04) rotate(-49.15)"/><path class="cls-1" d="M52.77,51.83c-5.91,0-11.85-2.04-16.66-6.2-10.64-9.2-11.8-25.33-2.61-35.97C42.7-.98,58.84-2.15,69.47,7.05c10.64,9.2,11.8,25.33,2.61,35.97-5.04,5.82-12.15,8.81-19.31,8.81Zm.05-49.99c-.6,0-1.2,.02-1.81,.07-6.53,.47-12.48,3.46-16.76,8.41-4.28,4.95-6.38,11.27-5.9,17.8s3.46,12.48,8.41,16.76c4.95,4.28,11.27,6.38,17.8,5.9,6.53-.47,12.48-3.46,16.76-8.41,4.28-4.95,6.38-11.27,5.9-17.8s-3.46-12.48-8.41-16.76c-4.49-3.88-10.11-5.97-15.99-5.97Z"/></g><text class="cls-1" transform="translate(53.97 77.38)"><tspan class="cls-5" x="0" y="0">Sascha</tspan><tspan class="cls-4" x="49.41" y="0">Design</tspan></text><rect class="cls-1" x="52.48" y=".58" width="1" height="50" transform="translate(-1.02 48.92) rotate(-49.15)"/><rect class="cls-3" x=".75" y="32.57" width="51" height="51"/></svg>