<?xml version="1.0" encoding="utf-8"?>
<!-- Generator: Adobe Illustrator 26.1.0, SVG Export Plug-In . SVG Version: 6.00 Build 0)  -->
<svg version="1.1" id="Layer_1" xmlns="http://www.w3.org/2000/svg" xmlns:xlink="http://www.w3.org/1999/xlink" x="0px" y="0px"
	 viewBox="0 0 140 160" style="enable-background:new 0 0 140 160;" xml:space="preserve">
<style type="text/css">
	.st0{fill:#F1DA90;}
	.st1{fill:#FC8843;}
	.st2{fill:#00B900;}
	.st3{fill:#FFFFFF;}
	.st4{fill:#F2B4DE;}
	.st5{fill:#FFF4E1;}
</style>
<g id="a">
	<g>
		<path class="st0" d="M103.7,112.9c-5.8-16.6-8.3-30.5-18.6-39.9c12.4-5.7,20.5-15.2,20.5-26c0-9.6-6.4-18.1-16.7-24
			c-0.4-0.8-0.8-1.6-1.3-2.3c3.1-3.5,4.3-9.4,4.3-14c0-7-8.4-3.1-15.8,0c-2.2,0.9-3.7,1.5-4.6,1.9c-4.3-1.5-9.1-2.4-14.2-2.4
			s-9.6,0.8-13.8,2.2C40.4,5.1,35,1.1,32.6,0.2c-5-1.9-6.9,12.4-4.5,17c0.3,0.5,0.5,1,0.7,1.4c-1.1,1.3-2,2.8-2.7,4.2
			C15.6,28.7,9,37.4,9,47.1C9,58,17.4,67.7,30.2,73.4c-9,9.6-15.4,23.7-19,37.7c-7.4,29.1,3.6,47.7,48.3,49
			C84.7,160.7,115.3,146.1,103.7,112.9L103.7,112.9z"/>
		<path class="st1" d="M31.9,97.2c-0.9,1.8-4.2,0.6-8.3,0.2c-9.1-0.9-7.7-1.5-5.1-6.4c4.1-7.8,1.2-6.2,8.3-0.2
			C29.8,93.5,32.8,95.4,31.9,97.2z"/>
		<path class="st1" d="M82.6,94.8c-0.6-1.9,2.9-2.8,5.7-5.5c6-5.8,5.7-4.5,7.9,1.4c1.6,4.1,2.9,4.4-5.8,4.8
			C86.5,95.7,83.2,96.7,82.6,94.8z"/>
		<path class="st1" d="M25.5,115.5c-0.9,1.8-4.3-0.6-8.3,0.2c-8.1,1.6-7.4,0.3-5.9-4.7c1.6-5.4,1-9.8,9-1.9
			C23.2,112,26.3,113.7,25.5,115.5L25.5,115.5z"/>
		<path class="st1" d="M87.6,111.1c-0.2-2,4-1.6,7.1-4.3c6.2-5.4,5.9-3.8,7.5,1.2s4.2,8.9-6.8,6.1C91.4,113.1,87.8,113.1,87.6,111.1
			L87.6,111.1z"/>
		<g>
			<ellipse class="st2" cx="44.6" cy="35.7" rx="11.6" ry="10.3"/>
			<ellipse class="st2" cx="72.1" cy="35.1" rx="11.6" ry="10.3"/>
			<ellipse cx="48.3" cy="34.1" rx="6" ry="5.8"/>
			<ellipse cx="75.8" cy="33.2" rx="6" ry="5.8"/>
			<ellipse class="st3" cx="50.6" cy="32.1" rx="1.1" ry="1.3"/>
			<ellipse class="st3" cx="79" cy="30.8" rx="1.1" ry="1.3"/>
			<ellipse class="st3" cx="49.3" cy="34.1" rx="0.5" ry="0.5"/>
			<ellipse class="st3" cx="78" cy="32.9" rx="0.5" ry="0.5"/>
		</g>
		<g>
			<path d="M59.5,53C59,56.6,58,60.5,55,62.8c-1.5,1.2-3.3,1.5-5.2,1.6s-3.8,0-5.5-0.9c-1.1-0.6-2.1,1-1,1.6c1.9,1,4.1,1.3,6.2,1.2
				s4.4-0.5,6.2-1.8c3.7-2.6,5-6.9,5.6-11.1C61.6,52.4,59.7,51.8,59.5,53L59.5,53L59.5,53z"/>
			<path d="M58,60c1.7,2.5,4.5,4.2,7.5,4.6c1.5,0.2,3,0.1,4.4-0.3c1.9-0.6,3.7-1.6,5.4-2.5c1.1-0.5,0.1-2.2-1-1.6
				c-2.7,1.3-5.3,3-8.4,2.6c-2.5-0.3-4.9-1.6-6.3-3.7C59,58,57.3,59,58,60L58,60L58,60z"/>
		</g>
		<path class="st4" d="M67.8,47.9c0,1.8-4.5,5.4-7.1,5.4c-3.7,0-9-2.8-9-4.6s2.6-2.7,6.8-3.3C62.1,44.8,67.8,46,67.8,47.9z"/>
		<path class="st4" d="M90.3,12.2c0.4-2,2.1-10.6-3.9-3.7c-1.5,1.7-1.6,1.7-3.9,3.7c-4.1,3.5-1.1,5.8,1.6,7.5
			C85.9,20.8,88.7,20.2,90.3,12.2L90.3,12.2z"/>
		<path class="st4" d="M40.5,8.8c2.7,2.6,0.4,3.5-2.8,4.9c-2.8,1.3-3.4,2.8-4.3-3.8C33,5.9,31.4,5.2,32,3.4C32.9,1,38.6,7,40.5,8.8z
			"/>
		<path d="M116.4,33.7c-10,2.1-19.7,5.6-28.8,10.3c-2.6,1.3-5.1,2.8-7.6,4.3C79,49,79.9,50.6,81,50c8.6-5.3,17.8-9.5,27.5-12.3
			c2.8-0.8,5.6-1.5,8.4-2.1C118.1,35.2,117.6,33.4,116.4,33.7L116.4,33.7L116.4,33.7z"/>
		<path d="M81.7,53.5c11.2-4,22.9-6.2,34.8-6.5c1.2,0,1.2-1.9,0-1.9c-12.1,0.3-24,2.5-35.3,6.6C80,52.1,80.5,54,81.7,53.5L81.7,53.5
			L81.7,53.5z"/>
		<path d="M82.2,57.4C94,56,104.8,62,114.7,67.7c1.1,0.6,2.1-1,1-1.6c-10.2-5.8-21.3-11.9-33.5-10.5C80.9,55.6,80.9,57.5,82.2,57.4
			L82.2,57.4L82.2,57.4z"/>
		<path d="M38.8,50.2c-12.3-3.6-25.1-5.4-37.9-5.4c-1.2,0-1.2,1.9,0,1.9c12.6,0,25.2,1.8,37.4,5.3C39.5,52.4,40,50.5,38.8,50.2
			L38.8,50.2L38.8,50.2z"/>
		<path d="M37.7,53.5c-12-1.6-24.4-2.8-36.1,1c-1.2,0.4-0.7,2.2,0.5,1.8c11.3-3.6,23.5-2.5,35.1-1c0.5,0.1,1-0.1,1.2-0.7
			C38.5,54.2,38.2,53.6,37.7,53.5C37.7,53.5,37.7,53.5,37.7,53.5z"/>
		<path d="M37.1,58c-5.3,0.1-10.3,2.1-15.2,3.8c-4.8,1.7-9.6,3.5-14,6.1c-1.1,0.6-0.1,2.3,1,1.6c4.3-2.5,8.9-4.2,13.6-5.9
			S32,60,37.1,59.9C38.3,59.9,38.3,58,37.1,58L37.1,58z"/>
		<path class="st5" d="M84.5,116.4c6.1,25.1-11.4,30.2-25.5,30.2s-32-2.5-25.5-30.2c3.8-16.2,11.4-30.2,25.5-30.2
			S80.5,100.2,84.5,116.4z"/>
		<path class="st0" d="M99.6,142c0,0,15.8,3.5,20.3-4.7c4.7-8.5,3.2-7.3-1.6-17.4c-2.5-5.2,0.4-11.7,3.2-15
			c2.6-3,8.1-13.1,15.8-10.9c7.9,2.2-4.8,7.4-6.5,8.2c-0.6,0.3-1.3,1.6-1.6,1.9c-2,1.9-4.5,7.7-4.8,11.1s3.3,10.9,4.5,13.3
			c4.2,7.9-6,19.6-14.9,20.5c-10.5,1.1-18.7,0.5-18.4-0.6S99.6,142,99.6,142L99.6,142z"/>
		<path class="st3" d="M132.1,94.3l-0.8,0.6c-0.7,0.5-0.9,1.5-0.4,2.2l0,0c0.5,0.7,1.5,0.9,2.2,0.4l0.8-0.6c0.7-0.5,0.9-1.5,0.4-2.2
			l0,0C133.9,94,132.8,93.8,132.1,94.3z"/>
		<path class="st5" d="M137.4,93.8c-1.4-0.3-4.2-0.2-4.8,0.3c-0.2,0-0.4,0.1-0.5,0.1l-0.9,0.4c0,0-0.1,0-0.1,0
			c-0.2,0-0.4,0.1-0.6,0.3l-0.8,0.6c-0.4,0.3-0.7,0.6-0.9,0.8l-1.5,1.2c-1,1.3-1,0.3,1.3,2.7l1,1.2c0.6,0.7,0.3,1.5,2.5,0.2l2.3-1
			c1.2-0.6,1.9-1,2.3-1.3l1.2-0.6C140,97.3,141.6,94.9,137.4,93.8L137.4,93.8z"/>
	</g>
</g>
<g id="b">
</g>
<g id="c">
</g>
<g id="d">
	<g id="e">
		<g id="f">
			<g id="g">
			</g>
		</g>
		<g id="h">
		</g>
		<g id="i">
		</g>
	</g>
</g>
<g id="j">
</g>
<g id="k">
	<g id="l">
	</g>
</g>
<g id="m">
</g>
<g id="n">
</g>
<g id="o">
</g>
<g id="p">
</g>
<g id="q">
</g>
<g id="r">
	<g id="s">
	</g>
</g>
<g id="t">
</g>
</svg>
