<?xml version="1.0" encoding="utf-8"?>
<!-- Generator: Adobe Illustrator 26.1.0, SVG Export Plug-In . SVG Version: 6.00 Build 0)  -->
<svg version="1.1" id="Layer_1" xmlns="http://www.w3.org/2000/svg" xmlns:xlink="http://www.w3.org/1999/xlink" x="0px" y="0px"
	 viewBox="0 0 140 160" style="enable-background:new 0 0 140 160;" xml:space="preserve">
<style type="text/css">
	.st0{fill:#CC9966;}
	.st1{fill:#F2D0DE;stroke:#F1B6D4;stroke-width:0.5;stroke-miterlimit:10;}
	.st2{fill:#F2D0DE;}
	.st3{fill:#F2D0DE;stroke:#F2D0DE;stroke-miterlimit:10;}
	.st4{fill:#FFF4E1;}
	.st5{fill:#FFFFFF;}
	.st6{fill:#A67C52;}
	.st7{fill:#5FB900;}
</style>
<g id="a">
</g>
<g id="b">
</g>
<g id="c">
	<g>
		<path class="st0" d="M103.8,112.9C98,96.3,95.5,82.4,85.2,73.1c12.4-5.7,20.5-15.2,20.5-26c0-9.6-6.4-18.1-16.6-24
			c-0.4-0.8-0.8-1.6-1.3-2.3c3.1-3.5,4.3-9.4,4.3-14c0-7-8.3-3.1-15.8,0c-2.2,0.9-3.7,1.5-4.6,1.9c-4.3-1.5-9.1-2.4-14.2-2.4
			S48,7.1,43.8,8.6c-3.3-3.5-8.7-7.5-11.1-8.4c-5-1.9-6.9,12.4-4.5,17c0.3,0.5,0.5,1,0.7,1.4c-1.1,1.3-2,2.8-2.7,4.2
			C15.8,28.7,9.2,37.4,9.2,47.1c0,10.9,8.4,20.6,21.2,26.3c-9,9.6-15.4,23.7-19,37.7C4,140.1,15,158.7,59.7,160
			C84.8,160.7,115.4,146.1,103.8,112.9L103.8,112.9z"/>
		<g>
			<path d="M59.6,53c-0.6,3.6-1.5,7.4-4.5,9.8c-1.5,1.1-3.2,1.5-5.1,1.6c-1.9,0.1-3.9,0-5.7-0.9c-1.1-0.6-2,1-1,1.6
				c1.9,1.1,4.2,1.3,6.3,1.2s4.3-0.5,6.1-1.8c3.6-2.6,4.9-6.9,5.6-11.1C61.6,52.4,59.8,51.8,59.6,53L59.6,53L59.6,53z"/>
			<path d="M58.1,60c1.7,2.5,4.5,4.2,7.5,4.6c1.5,0.2,3,0.1,4.4-0.3c1.9-0.6,3.7-1.6,5.4-2.5c1.1-0.5,0.1-2.2-1-1.6
				c-2.7,1.3-5.3,3-8.4,2.6c-2.5-0.3-4.9-1.6-6.3-3.7C59.1,58,57.4,59,58.1,60C58.1,60,58.1,60,58.1,60z"/>
		</g>
		<path class="st1" d="M67.9,47.9c0,1.8-4.5,5.4-7.1,5.4c-3.7,0-9-2.8-9-4.6s2.6-2.7,6.8-3.3C62.2,44.8,67.9,46,67.9,47.9z"/>
		<path class="st2" d="M90.3,12.2c0.4-2,2.1-10.6-3.9-3.7c-1.5,1.7-1.6,1.7-3.9,3.7c-4.1,3.5-1.1,5.8,1.6,7.5
			C85.9,20.8,88.8,20.2,90.3,12.2z"/>
		<path class="st3" d="M40.6,8.8c2.7,2.6,0.4,3.5-2.8,4.9c-2.8,1.3-3.4,2.8-4.2-3.8c-0.5-4.1-2.1-4.7-1.5-6.5C33,1,38.7,7,40.6,8.8z
			"/>
		<path d="M116.4,33.7c-10,2.2-19.7,5.6-28.8,10.3c-2.6,1.3-5.1,2.8-7.5,4.3c-1,0.7-0.1,2.3,1,1.6c8.6-5.3,17.8-9.5,27.5-12.4
			c2.7-0.8,5.5-1.5,8.3-2.1C118.1,35.2,117.6,33.4,116.4,33.7L116.4,33.7L116.4,33.7z"/>
		<path d="M81.7,53.5c11.2-4,22.9-6.2,34.8-6.5c1.2,0,1.2-1.9,0-1.9c-12,0.3-24,2.5-35.3,6.6C80.1,52.1,80.6,53.9,81.7,53.5
			C81.7,53.5,81.7,53.5,81.7,53.5z"/>
		<path d="M82.2,57.4c11.9-1.3,22.6,4.7,32.5,10.3c1.1,0.6,2-1,1-1.6c-10.1-5.8-21.3-11.9-33.5-10.5C81,55.6,81,57.5,82.2,57.4
			L82.2,57.4L82.2,57.4z"/>
		<path d="M37.2,58c-5.2,0.1-10.2,2.1-15,3.8c-4.9,1.7-9.7,3.6-14.1,6.1c-1.1,0.6-0.1,2.2,1,1.6c4.3-2.5,9-4.3,13.7-5.9
			s9.5-3.6,14.5-3.7C38.4,59.9,38.4,58,37.2,58L37.2,58L37.2,58z"/>
		<path class="st4" d="M84.6,116.4c6.1,25.1-11.4,30.2-25.5,30.2s-32-2.5-25.5-30.2c3.8-16.2,11.4-30.2,25.5-30.2
			S80.6,100.2,84.6,116.4z"/>
		<path class="st0" d="M99.7,142c0,0,15.7,3.5,20.2-4.7s3.2-7.3-1.6-17.4c-2.5-5.2,0.4-11.7,3.2-15c2.6-3,8.1-13.1,15.8-10.9
			c7.9,2.2-4.8,7.4-6.5,8.2c-0.6,0.3-1.3,1.6-1.6,1.9c-2,1.9-4.5,7.7-4.8,11.1s3.3,10.9,4.5,13.3c4.2,7.9-6,19.6-14.8,20.5
			c-10.5,1.1-18.6,0.5-18.4-0.6S99.7,142,99.7,142L99.7,142z"/>
		<path class="st5" d="M132.1,94.3l-0.8,0.6c-0.7,0.5-0.9,1.5-0.4,2.2l0,0c0.5,0.7,1.5,0.9,2.2,0.4l0.8-0.6c0.7-0.5,0.9-1.5,0.4-2.2
			l0,0C133.9,94,132.9,93.8,132.1,94.3z"/>
		<path class="st4" d="M137.4,93.8c-1.4-0.3-4.2-0.2-4.8,0.3c-0.2,0-0.4,0.1-0.5,0.1l-0.9,0.4c0,0-0.1,0-0.1,0
			c-0.2,0-0.4,0.1-0.6,0.3l-0.8,0.6c-0.4,0.3-0.7,0.6-0.9,0.8l-1.5,1.2c-1,1.3-1,0.3,1.3,2.7l1,1.2c0.6,0.7,0.3,1.5,2.5,0.2l2.3-1
			c1.2-0.6,1.9-1,2.3-1.3l1.2-0.6C140,97.3,141.5,94.9,137.4,93.8L137.4,93.8z"/>
		<path class="st6" d="M78.9,100.8c0,0-0.4-6.1,5.1-7.7c5.5-1.6,5.5-6.9,5.5-6.9s-2.8-5.3,1.5-6.1c0,0,4.3,7,6.2,12.7s4,12.3,4,12.3
			s2.2,8.6-1.4,7.6c-3.6-0.9-1.3-3.8-4.5-4.4c-3.2-0.6-1.6,3.5-4.2,5.4s-7.8-2.1-7.8-2.1S79.3,101,78.9,100.8L78.9,100.8z"/>
		<path class="st6" d="M12.9,59.1c0,0,11.3,6.6,23.2-2.6s12.3-10.1,18.7-12.6s11.6-12,2.9-19.6S55.2,9.4,55.2,9.4l2.4-3.1
			c0,0-10.4,0.4-13.8,2.2s-14.9,10-14.9,10l-2.7,4.2c0,0-7.1,4.1-10.7,8.3S9.5,42,9.3,46S10.1,55.9,12.9,59.1L12.9,59.1z"/>
		<path class="st6" d="M45.2,89c0-3.3-2.5-6-5.7-6c-1.4,0-2.7,0.6-3.7,1.5c-0.2-4.7-2.7-8.4-5.8-8.4c-1.5,0-2.8,0.8-3.8,2.2l0-0.1
			c0,0-8.2,12.4-11.1,20.9s2,10.7,5.8,9.8c3.9-0.9,5.2-4.4,10-3.2s6-0.8,6-0.8s4.8-9.7,5.4-10c0.2-0.1,0.7-0.7,1.1-1.7
			C44.6,92.2,45.2,90.7,45.2,89L45.2,89z"/>
		<path d="M37.8,53.5c-12-1.6-24.4-2.8-36.1,1c-1.2,0.4-0.7,2.2,0.5,1.8c11.3-3.6,23.5-2.5,35.1-1c0.5,0.1,1-0.1,1.2-0.7
			C38.6,54.2,38.3,53.6,37.8,53.5L37.8,53.5L37.8,53.5z"/>
		<g>
			<ellipse class="st7" cx="72.8" cy="34.1" rx="11.6" ry="10.3"/>
			<ellipse class="st7" cx="45" cy="34.4" rx="11.6" ry="10.3"/>
			<ellipse cx="48.8" cy="32.8" rx="6" ry="5.8"/>
			<ellipse cx="76.2" cy="31.9" rx="6" ry="5.8"/>
			<ellipse class="st5" cx="51" cy="30.8" rx="1.1" ry="1.3"/>
			<ellipse class="st5" cx="79.4" cy="29.5" rx="1.1" ry="1.3"/>
			<ellipse class="st5" cx="49.7" cy="32.8" rx="0.5" ry="0.5"/>
			<ellipse class="st5" cx="78.5" cy="31.5" rx="0.5" ry="0.5"/>
		</g>
		<path d="M39,49c-12.5-2.8-25.4-3.8-38.1-3c-1.2,0.1-1.1,2,0.1,1.9c12.6-0.8,25.3,0.2,37.6,3C39.8,51.1,40.2,49.3,39,49L39,49
			L39,49z"/>
	</g>
</g>
<g id="d">
	<g id="e">
		<g id="f">
			<g id="g">
			</g>
		</g>
		<g id="h">
		</g>
		<g id="i">
		</g>
	</g>
</g>
<g id="j">
</g>
<g id="k">
	<g id="l">
	</g>
</g>
<g id="m">
</g>
<g id="n">
</g>
<g id="o">
</g>
<g id="p">
</g>
<g id="q">
</g>
<g id="r">
	<g id="s">
	</g>
</g>
<g id="t">
</g>
</svg>
