<?xml version="1.0" encoding="UTF-8"?><svg xmlns="http://www.w3.org/2000/svg" xmlns:xlink="http://www.w3.org/1999/xlink" viewBox="0 0 350 221"><defs><style>.w{fill:url(#n);}.x{fill:#de6736;}.y{fill:#da3933;stroke:#c1272d;stroke-miterlimit:10;stroke-width:2px;}</style><radialGradient id="n" cx="210.03" cy="-111.94" fx="210.03" fy="-111.94" r="122.55" gradientTransform="translate(-55.43 237.88) scale(1.09 1.17)" gradientUnits="userSpaceOnUse"><stop offset=".61" stop-color="#f9de4b"/><stop offset=".97" stop-color="#f5c44c"/><stop offset=".98" stop-color="#f5c44d"/></radialGradient></defs><g id="a"/><g id="b"/><g id="c"/><g id="d"><g id="e"><g id="f"><g id="g"/></g><g id="h"/><g id="i"/></g></g><g id="j"/><g id="k"><g id="l"><g id="m"><g><path class="x" d="M288,207.62l-227.63,.88c-28.97,0-62.88-23.75-60.23-43.99V58.94C-1.62,49.27,20.52,11.44,53.29,7.04L268.52,0c28.97,0,72.63,14.33,72.63,43.11l8.86,95.01c-2.66,59.82-35.43,66.86-62,69.5Z"/><rect class="w" x="6.35" y="12.32" width="333.91" height="189.15" rx="92" ry="92"/></g><g><path class="y" d="M95.57,44.82c-9.23-1.87-18.82-1.68-27.89,1-8.45,2.49-16.97,7-22.91,13.59-3.35,3.72-5.98,7.9-7.45,12.7-1.38,4.49-1.36,9.38-.28,13.93,1.02,4.27,3.37,8.55,6.58,11.58,1.99,1.88,4.14,3.23,6.63,4.28,2.99,1.25,5.88,1.71,9.1,2.09,10.18,1.18,20.46,1.43,30.62,2.76l-2.47-.33c3.78,.51,7.51,1.29,11.04,2.74l-2.22-.93c2.06,.88,3.98,1.97,5.75,3.32l-1.88-1.44c1.75,1.38,3.29,2.95,4.65,4.7l-1.45-1.87c1.5,1.99,2.73,4.14,3.71,6.43l-.94-2.2c1.01,2.45,1.69,4.99,2.07,7.61l-.33-2.45c.41,3.18,.37,6.37-.06,9.54l.33-2.45c-.53,3.64-1.54,7.17-2.96,10.57l.94-2.2c-1.34,3.14-2.96,6.15-5.05,8.85l1.45-1.87c-1.2,1.5-2.52,2.86-4.04,4.04l1.88-1.44c-1.41,1.05-2.93,1.89-4.56,2.58l2.22-.93c-5.69,2.34-11.95,3.66-18.03,4.5l2.47-.33c-5.94,.78-11.94,.91-17.9,.16l2.47,.33c-4.74-.64-9.36-1.84-13.78-3.67l2.22,.93c-3.74-1.59-7.27-3.59-10.5-6.05l1.88,1.44c-2.77-2.15-5.26-4.59-7.42-7.35l1.45,1.87-.25-.32c-1.52-1.99-3.02-3.55-5.55-4.24-2.22-.61-5.18-.33-7.16,.93-1.98,1.27-3.73,3.16-4.27,5.51s-.54,5.18,.94,7.11c4.35,5.7,9.45,10.48,15.68,14.14,5.55,3.25,11.81,5.65,18.14,6.9,7.44,1.47,15.06,1.83,22.6,.95s15.01-2.19,21.94-5.01c4.06-1.65,7.68-3.71,10.8-6.84,2.57-2.58,4.76-5.66,6.48-8.86,3.74-6.95,6.03-14.53,6.45-22.41,.74-14.02-6.34-29.06-19.26-35.58-7.62-3.85-15.93-4.8-24.33-5.52-8.14-.7-16.36-1.11-24.47-2.14l2.47,.33c-1.66-.23-3.28-.58-4.84-1.21l2.22,.93c-.98-.43-1.89-.96-2.75-1.6l1.88,1.44c-.89-.71-1.67-1.51-2.36-2.4l1.45,1.87c-.75-1.01-1.36-2.09-1.87-3.25l.94,2.2c-.57-1.4-.96-2.85-1.18-4.34l.33,2.45c-.19-1.51-.2-3.01-.02-4.52l-.33,2.45c.22-1.59,.66-3.12,1.27-4.61l-.94,2.2c.82-1.91,1.88-3.67,3.14-5.31l-1.45,1.87c1.64-2.06,3.53-3.87,5.61-5.49l-1.88,1.44c3-2.28,6.29-4.11,9.76-5.57l-2.22,.93c3.89-1.59,7.95-2.66,12.12-3.22l-2.47,.33c4.03-.5,8.08-.51,12.11-.01l-2.47-.33c1.15,.15,2.29,.35,3.42,.58,2.46,.5,4.94,.36,7.16-.93,1.93-1.12,3.76-3.31,4.27-5.51,1.06-4.6-1.4-10.31-6.49-11.35h0Z"/><path class="y" d="M219.92,135.49c-.01-.07-.03-.13-.04-.2-.02-.1-.05-.2-.08-.3-.04-.16-.07-.32-.13-.49-.98-3-3.32-5.37-6.18-6.32-7.12-4.5-13.89-9.51-20.57-14.62-7.07-5.44-14.09-10.96-21.38-16.13-7.34-5.21-14.97-10.02-22.83-14.42-4.23-2.37-10.34-1.14-12.7,3.31-.18,.35-.34,.7-.48,1.07-.48,1.13-.75,2.35-.9,3.72-.42,3.96-.9,7.91-1.42,11.86-3.89,28.07-10.34,55.79-19.3,82.69-2.54,7.64-5.29,15.21-8.23,22.7-.82,2.1-.16,5.24,.94,7.11,1.13,1.91,3.34,3.74,5.55,4.24,2.38,.54,5.05,.42,7.16-.93,2.15-1.38,3.34-3.16,4.27-5.51,5.87-14.99,10.97-30.28,15.25-45.8,.02-.08,.04-.16,.07-.24,18.92-5.44,37.84-10.89,56.77-16.33,4.9-1.41,9.8-2.82,14.69-4.23,3.41,.16,6.96-1.49,8.58-4.52,1.14-2.14,1.43-4.48,.96-6.64Zm-75.82,11.02c1.98-8.76,3.71-17.57,5.18-26.42,.77-4.63,1.46-9.27,2.1-13.92,7.85,5.03,15.42,10.45,22.84,16.13,4.91,3.78,9.79,7.59,14.77,11.3l-42.61,12.26c-.76,.22-1.52,.44-2.28,.66Z"/><path class="y" d="M229.24,95.6c-2.87,20.23-6.32,40.39-10.35,60.43-1.14,5.69-2.34,11.37-3.57,17.04-.53,2.42-.35,4.93,.94,7.11,1.13,1.91,3.34,3.74,5.55,4.24,4.68,1.06,10.32-1.4,11.42-6.44,4.35-19.97,8.13-40.07,11.33-60.25,.91-5.73,1.77-11.47,2.58-17.22,.36-2.56,.44-4.78-.94-7.11-1.13-1.91-3.34-3.74-5.55-4.24-2.38-.54-5.05-.42-7.16,.93-1.88,1.2-3.94,3.2-4.27,5.51h0Z"/><path class="y" d="M227.02,62.99c-.08,4.01,.05,8.01,.41,12-.05,1.27,.22,2.45,.8,3.55,.37,1.14,1.01,2.13,1.92,2.97,.84,.9,1.84,1.54,2.99,1.91,1.11,.58,2.3,.84,3.58,.79,2.4-.11,4.89-.89,6.57-2.7,1.58-1.71,2.94-4.11,2.72-6.52-.36-3.99-.49-8-.41-12,.05-1.27-.22-2.45-.8-3.55-.37-1.14-1.01-2.13-1.92-2.97-.84-.9-1.84-1.54-2.99-1.91-1.11-.58-2.3-.84-3.58-.79-2.4,.11-4.89,.89-6.57,2.7s-2.67,4.01-2.72,6.52h0Z"/><path class="y" d="M319.01,142.7c-1.9-1.71-4.01-2.49-6.58-2.67-14.34-.99-28.64-2.32-42.92-3.97,3.23-21.61,6.64-43.2,10.05-64.78,1.1-6.96,2.2-13.92,3.31-20.88,.4-2.53,.39-4.82-.97-7.1-1.14-1.91-3.35-3.72-5.57-4.21-2.38-.53-5.05-.4-7.15,.97-1.9,1.23-3.87,3.21-4.24,5.53-3.95,24.94-7.94,49.87-11.74,74.83-1.08,7.07-2.13,14.13-3.17,21.2-.44,3.04-.26,5.54,1.7,8.03,.66,1,1.53,1.79,2.62,2.36,1.45,.83,3.02,1.24,4.69,1.24,17.77,2.26,35.6,4,53.48,5.24,2.27,.16,5-1.17,6.55-2.73,1.6-1.61,2.8-4.24,2.69-6.54-.12-2.38-.92-4.85-2.75-6.51Z"/></g></g></g></g><g id="o"/><g id="p"/><g id="q"/><g id="r"/><g id="s"/><g id="t"><g id="u"/></g><g id="v"/></svg>