<?xml version="1.0" encoding="utf-8"?>
<!-- Generator: Adobe Illustrator 26.1.0, SVG Export Plug-In . SVG Version: 6.00 Build 0)  -->
<svg version="1.1" id="Layer_1" xmlns="http://www.w3.org/2000/svg" xmlns:xlink="http://www.w3.org/1999/xlink" x="0px" y="0px"
	 viewBox="0 0 1920 1080" style="enable-background:new 0 0 1920 1080;" xml:space="preserve">
<style type="text/css">
	.st0{fill:#A4B5AA;}
	.st1{fill:#8DD4F7;}
	.st2{fill:url(#SVGID_1_);}
	.st3{fill:url(#SVGID_00000170958816405151347290000015061369742307259779_);}
	.st4{fill:#62873F;}
	.st5{fill:#5E772F;}
	.st6{fill:#BD955D;}
	.st7{fill:none;}
	.st8{fill:#C9D2C2;}
	.st9{fill:#5F6A6A;}
	.st10{fill:#534741;}
	.st11{fill:#627C2E;}
	.st12{fill:#7E6958;}
	.st13{fill:#B18D6D;}
	.st14{fill:#B28E70;}
	.st15{fill:#736357;}
	.st16{fill:#998675;}
	.st17{fill:#CEB180;}
	.st18{fill:none;stroke:#736357;}
	.st19{fill:none;stroke:#534741;}
	.st20{fill:#C7B299;}
	.st21{fill:#CEB180;stroke:#736357;stroke-width:0.2;}
	.st22{fill:url(#SVGID_00000183952394820943022030000008229902715493875379_);}
	.st23{fill:#CEB180;stroke:#736357;stroke-width:0.5;}
	.st24{fill:#B7E2FC;}
	.st25{fill:#DBF0FE;}
	.st26{fill:#CEB180;stroke:#1D1D1B;stroke-width:0.2;}
	.st27{fill:url(#SVGID_00000030482228454334292380000003060184368989122444_);stroke:#1D1D1B;stroke-width:0.2;}
	.st28{fill:#52272D;}
	.st29{fill:#B1B8AB;}
	.st30{fill:#949D8F;}
	.st31{fill:#969E90;}
	.st32{fill:#949E91;}
	.st33{fill:#C2C8BC;}
	.st34{fill:#C6CFC4;}
	.st35{fill:#C6CDC1;}
	.st36{fill:#C5CBBF;}
	.st37{fill:#F1DA90;}
	.st38{fill:#FC8843;}
	.st39{fill:#5FB900;}
	.st40{stroke:#000000;stroke-width:0.5;}
	.st41{fill:#FFFFFF;stroke:#000000;stroke-width:0.5;}
	.st42{fill:#F3D2DF;stroke:#E59EC0;stroke-width:0.5;}
	.st43{fill:#F2D0DE;}
	.st44{fill:#F2D0DE;stroke:#F2D0DE;}
	.st45{fill:#FFF4E1;}
</style>
<g id="a">
</g>
<g id="b">
</g>
<g id="c">
</g>
<g id="d">
	<g id="e">
		<g id="f">
			<g id="g">
			</g>
		</g>
		<g id="h">
		</g>
		<g id="i">
		</g>
	</g>
</g>
<g id="j">
	<g>
		<polygon class="st0" points="1925,798.5 -1,820.5 -1,810.5 1925,784.5 		"/>
		<g>
			<rect y="-1.5" class="st1" width="1926" height="769"/>
			
				<linearGradient id="SVGID_1_" gradientUnits="userSpaceOnUse" x1="1383.2946" y1="96.73" x2="1483.6345" y2="247.6902" gradientTransform="matrix(1 -8.726535e-03 8.726535e-03 1 -1.67 11.6289)">
				<stop  offset="0.46" style="stop-color:#CCE0F4"/>
				<stop  offset="0.51" style="stop-color:#C2D9EF"/>
				<stop  offset="0.6" style="stop-color:#A9C9E4"/>
				<stop  offset="0.72" style="stop-color:#7FAED1"/>
				<stop  offset="0.85" style="stop-color:#4588B6"/>
				<stop  offset="0.99" style="stop-color:#005B97"/>
				<stop  offset="1" style="stop-color:#1E9CD7"/>
				<stop  offset="1" style="stop-color:#0075BE"/>
			</linearGradient>
			<path class="st2" d="M1501.7,150.7c1.9-3.6,3-7.6,2.9-11.9c-0.1-13.1-10.6-24.1-24.9-27.6c-4.3-1.9-10.3-3.1-17-3.1
				c-6,0.1-11.4,1.1-15.6,2.8c-1.1-14.3-17.2-25.5-36.8-25.3s-36.5,12.4-36.4,27.3c0,1.7,0.2,3.3,0.7,4.9c-1.6-0.6-3.3-0.9-5.2-0.9
				c-8,0.1-14.5,6.6-14.4,14.6c0,0.8,0.1,1.5,0.2,2.3c-14.3,4.7-24.1,14.6-24.1,25.9c0.1,15.7,19.3,28.3,42.9,28.1
				c6.1-0.1,11.8-0.9,17-2.5c-2.2,3-3.4,6.4-3.4,9.9c0.1,12.4,15.7,22.4,34.8,22.2c19.1-0.2,34.5-10.4,34.4-22.8c0-0.2,0-0.3,0-0.5
				c0.2,0,0.3,0,0.5,0c30.8-0.3,55.6-12.6,55.4-27.5C1512.8,160.7,1508.7,155.1,1501.7,150.7L1501.7,150.7z M1436.4,132.1
				c-0.2-0.1-0.3-0.1-0.4-0.2c0.2-0.2,0.4-0.3,0.7-0.5C1436.5,131.7,1436.5,131.9,1436.4,132.1L1436.4,132.1z M1384.7,131.8
				c-0.2,0-0.4-0.1-0.6-0.1c0-0.1,0-0.2,0-0.3C1384.3,131.5,1384.5,131.6,1384.7,131.8L1384.7,131.8z"/>
			
				<linearGradient id="SVGID_00000124151923843942838610000012386415707745301158_" gradientUnits="userSpaceOnUse" x1="974.2522" y1="71.9573" x2="1076.8522" y2="217.5672">
				<stop  offset="0.46" style="stop-color:#CCE0F4"/>
				<stop  offset="0.51" style="stop-color:#C2D9EF"/>
				<stop  offset="0.6" style="stop-color:#A9C9E4"/>
				<stop  offset="0.72" style="stop-color:#7FAED1"/>
				<stop  offset="0.85" style="stop-color:#4588B6"/>
				<stop  offset="0.99" style="stop-color:#005B97"/>
				<stop  offset="1" style="stop-color:#1E9CD7"/>
				<stop  offset="1" style="stop-color:#0075BE"/>
			</linearGradient>
			<path style="fill:url(#SVGID_00000124151923843942838610000012386415707745301158_);" d="M931.9,133.8
				c0,12.6,12.9,22.9,29.6,24.6c-3.1,6-2.1,13.5,2.9,18.5c6.2,6.2,16.4,6.1,22.7-0.3c2.7-2.7,4.3-6.2,4.7-9.8
				c3.5,4.6,9.1,7.7,15.5,7.6c3.5,0,6.8-1,9.7-2.6c2.3,7.8,10.3,13.6,20,13.5c11.4,0,20.5-8.1,20.5-18.1c0-0.3,0-0.6-0.1-0.9
				c3.1-1.2,6-2.7,8.5-4.2c3.8,1.4,8.1,2.1,12.6,2.1c15.5-0.1,28.1-9.3,28-20.6c0-10.8-11.6-19.7-26.2-20.4c3.8-3.8,6-8.7,6-14.1
				c0-12.2-11.7-22-26.2-21.9c-10.5,0-19.6,5.3-23.7,12.9c-2.7-1.8-5.9-3.1-9.4-3.6c-3.8-12.8-17.9-22.2-34.7-22.2
				c-19.7,0.1-35.6,13.1-35.5,29.1c0,2,0.3,3.9,0.7,5.8C942.8,112.4,931.9,122.2,931.9,133.8L931.9,133.8z"/>
			<polygon class="st4" points="789.5,775.5 -2,778.5 -0.1,685.5 791.5,666.5 			"/>
			<polygon class="st5" points="675.2,698.5 -1,704.5 -1,685.5 861.7,668.5 			"/>
			<g>
				<polygon class="st6" points="766.4,671.5 -1,685.5 -2,639.5 766.4,636.5 				"/>
				<line class="st7" x1="210.2" y1="640" x2="211.2" y2="679"/>
				<line class="st7" x1="171" y1="641" x2="173" y2="681"/>
				<line class="st7" x1="151" y1="641" x2="154" y2="682"/>
				<line class="st7" x1="121.9" y1="640" x2="124.9" y2="682"/>
				<line class="st7" x1="136.9" y1="640" x2="140.9" y2="682"/>
				<line class="st7" x1="17.6" y1="640.5" x2="17.6" y2="685.5"/>
				<line class="st7" x1="42.6" y1="639" x2="42.6" y2="684"/>
				<line class="st7" x1="72.7" y1="640" x2="72.7" y2="682"/>
				<line class="st7" x1="97.8" y1="639" x2="97.8" y2="681"/>
				<line class="st7" x1="56.7" y1="639" x2="56.7" y2="683"/>
				<line class="st7" x1="234.2" y1="639" x2="236.2" y2="681"/>
				<line class="st7" x1="273.4" y1="639" x2="275.4" y2="680"/>
				<line class="st7" x1="252.3" y1="638" x2="254.3" y2="680"/>
				<line class="st7" x1="707.7" y1="637" x2="706.7" y2="669"/>
				<line class="st7" x1="679.6" y1="637" x2="679.6" y2="673"/>
				<line class="st7" x1="638.5" y1="637" x2="638.5" y2="673"/>
				<polygon class="st6" points="1925,620.5 1846.9,634.5 1846.8,588.5 1925,585.5 				"/>
				<line class="st7" x1="1912" y1="586" x2="1912" y2="622"/>
				<line class="st7" x1="655.5" y1="637" x2="655.5" y2="673"/>
				<line class="st7" x1="731.8" y1="637" x2="731.8" y2="666"/>
				<line class="st7" x1="556.2" y1="637" x2="557.2" y2="675"/>
				<line class="st7" x1="590.3" y1="637" x2="590.3" y2="674"/>
				<line class="st7" x1="615.4" y1="637" x2="614.4" y2="673"/>
				<line class="st7" x1="387.7" y1="638" x2="387.7" y2="678"/>
				<line class="st7" x1="369.7" y1="638" x2="369.7" y2="679"/>
				<line class="st7" x1="479" y1="638" x2="480" y2="677"/>
				<line class="st7" x1="521.1" y1="638" x2="523.1" y2="676"/>
				<line class="st7" x1="430.9" y1="638" x2="431.9" y2="678"/>
				<line class="st7" x1="453.9" y1="638" x2="455.9" y2="677"/>
				<line class="st7" x1="500.1" y1="638" x2="501.1" y2="676"/>
				<line class="st7" x1="407.8" y1="638" x2="408.8" y2="678"/>
				<line class="st7" x1="319.5" y1="638.5" x2="319.5" y2="679.5"/>
				<line class="st7" x1="346.6" y1="638" x2="347.6" y2="679"/>
				<line class="st7" x1="297.4" y1="639" x2="298.4" y2="679"/>
			</g>
			<rect x="-2" y="966.5" class="st8" width="1928" height="115"/>
			<polygon class="st9" points="1924,971 -1,999.5 -1,817.5 1925,798.5 			"/>
			<polygon class="st8" points="1925,785.5 -1,812.5 -1,770.5 1925,765.5 			"/>
			<g>
				<rect x="1275.5" y="487.1" class="st10" width="278.7" height="4.2"/>
				<g>
					<g id="m">
						<rect x="968.2" y="619.6" class="st4" width="956.8" height="149.2"/>
						<polygon class="st5" points="1003.9,703.8 968.2,679.3 968.2,767.8 999.1,767.8 						"/>
						<path class="st5" d="M1003.3,713.6l-2.2,24.4l-25.4-57.5l83.8-49l-52.1,71.9C1005.2,705.7,1003.7,709.4,1003.3,713.6z"/>
						<polygon class="st11" points="1036.8,626 998.4,626 998.4,679.3 1059.5,631.4 						"/>
						<rect x="1108.3" y="617.5" class="st5" width="233.5" height="22.4"/>
						<rect x="1048.5" y="632.4" class="st5" width="59.8" height="7.5"/>
						<rect x="1339.8" y="632.4" class="st5" width="169.7" height="4.3"/>
						<rect x="1504.6" y="628.2" class="st5" width="33" height="5.3"/>
					</g>
					<g>
						<g>
							<polygon class="st12" points="860.2,325 830.4,293 831.5,256.7 863.4,293 							"/>
							<polyline class="st13" points="784,458 787.1,294.9 830.4,293 824.6,418.2 784,458 784,458 							"/>
							<polygon class="st14" points="777.2,259.9 778.4,295.1 834.1,293 835.2,256.7 							"/>
							<polygon class="st12" points="830.4,293 860.2,325 853.3,329.7 851.7,383.5 837.3,423.5 824.6,418.2 							"/>
						</g>
						<polygon class="st15" points="824.6,418.2 846.9,383 856.5,534.4 818.2,534.4 						"/>
						<g>
							<polygon class="st15" points="1865.8,510.9 1556.3,513.1 1555.2,276.5 1776.5,278.6 							"/>
							<polygon class="st15" points="1421.2,490.7 1568,490.7 1574.4,276.5 1414.9,277.5 							"/>
							<polygon class="st15" points="1511.6,491.7 1147.9,489.6 1187.2,257.3 1504.2,253 							"/>
							<polygon class="st15" points="1178.8,542.9 846.9,542.9 846.9,383 1179.8,378.8 							"/>
							<polygon class="st15" points="824.6,418.2 800.1,419.3 744.8,550.4 850.1,551.4 							"/>
							<polygon class="st15" points="1906.2,535.4 1803.1,536.5 1803.1,393.7 1844.5,394.8 							"/>
							<rect x="1070.3" y="539.7" class="st10" width="105.3" height="10.7"/>
							<rect x="1149" y="488.5" class="st10" width="128.7" height="9.6"/>
							<polygon class="st10" points="1862.6,518.4 1555.2,513.1 1555.2,508.8 1865.8,509.9 							"/>
							<polygon class="st10" points="1900.6,546.1 1802,547.2 1803.1,536.5 1903,535.2 							"/>
							<polygon class="st10" points="849,561 748,561 746.9,550.4 850.1,550.4 							"/>
						</g>
						<g>
							<polygon class="st16" points="1348.9,269 1222.3,369.2 1234.1,378.8 1353.2,287.1 							"/>
							<polygon class="st16" points="1475.5,363.9 1348.9,269 1353.2,287.1 1459.5,375.6 							"/>
							<polygon class="st16" points="1696.7,256.2 1624.4,352.1 1631.8,364.9 1695.6,281.8 							"/>
							<polygon class="st16" points="1763.7,360.6 1750.9,372.4 1695.6,280.7 1696.7,256.2 							"/>
							<path class="st16" d="M962.8,417.1L816.1,525.9l-12.8-12.8l43.6-25.6l1.1-10.7l35.1-19.2v-8.5l26.6-11.7v-4.3l54.2-33
								l37.2,23.5l6.4,11.7l25.5,13.9l2.1,10.7l31.9,21.3l2.1,9.6l29.8,14.9c0,0,1.1,24.5-14.9,22.4L962.8,417.1L962.8,417.1z"/>
							<path class="st10" d="M1351,286l-117,92.7l9.4,1.8c0.1,0.2,0.3,0.2,0.5,0.1l93.3-79.7L1351,286L1351,286z"/>
							<polygon class="st10" points="1460.6,375 1448.9,375.6 1351,286 1408,333.4 							"/>
							<polygon class="st10" points="1736.1,361.7 1752,370.2 1696.7,281.8 1693.5,288.2 							"/>
							<polygon class="st10" points="1743.5,358.5 1736.1,361.7 1736.1,371.3 1752,370.2 							"/>
							<polygon class="st10" points="847.7,500.2 815,525.8 848,523.7 850.1,505.6 							"/>
							<polygon class="st10" points="964,415.4 847.3,501 848,507.7 962.8,422.9 							"/>
							<polygon class="st10" points="1083,526.9 1077.5,527.1 961.8,422.2 962.8,417.1 							"/>
						</g>
						<g>
							<polygon class="st17" points="1814.2,544 1819,512 1577.6,510 1577.6,490.7 1541.4,490.7 1541.4,492.8 1176.6,492.8 
								1177,546.1 1068.4,546.1 1068.1,516.2 961.6,417.8 846.9,502.4 846.9,560 791.6,560 791.6,558.9 770.3,558.9 770.3,599.4 
								754.4,622.8 754.4,658 791.6,656.9 791.6,652.7 851.2,652.7 851.2,632.4 1069.2,632.4 1069.2,629.2 1177.7,629.2 
								1177.7,631.4 1541.4,626.1 1541.4,630.3 1577.6,630.3 1577.6,629.3 1800.9,631.4 1801.6,627.1 1865.8,627.1 1882.8,544 
															"/>
							<rect x="754.4" y="635.6" class="st17" width="101" height="41.6"/>
							<g id="n">
								<line class="st18" x1="1191" y1="497.6" x2="1189.9" y2="618"/>
								<line class="st18" x1="1178.2" y1="541.3" x2="1177.2" y2="619.1"/>
								<line class="st18" x1="1068.7" y1="593.5" x2="1071.9" y2="521"/>
								<line class="st18" x1="848.5" y1="591.4" x2="849.6" y2="506.1"/>
								<line class="st18" x1="794.3" y1="560.5" x2="793.2" y2="657.5"/>
								<line class="st18" x1="777.2" y1="617" x2="794.3" y2="617"/>
								<line class="st18" x1="780.4" y1="598.8" x2="793.2" y2="598.8"/>
								<line class="st18" x1="824" y1="582.9" x2="794.3" y2="582.9"/>
								<line class="st18" x1="844.2" y1="565.8" x2="794.3" y2="566.9"/>
								<line class="st18" x1="799.6" y1="607.4" x2="838.9" y2="607.4"/>
								<line class="st18" x1="800.7" y1="628.7" x2="837.9" y2="628.7"/>
								<line class="st18" x1="1070.8" y1="564.8" x2="1097.4" y2="564.8"/>
								<line class="st18" x1="1069.7" y1="587.1" x2="1096.3" y2="587.1"/>
								<line class="st18" x1="1209.1" y1="525.3" x2="1233.5" y2="525.3"/>
								<line class="st18" x1="1229.3" y1="577.5" x2="1189.9" y2="577.5"/>
								<line class="st18" x1="1256.9" y1="598.8" x2="1189.9" y2="598.8"/>
								<line class="st18" x1="1598.3" y1="553" x2="1486.7" y2="552"/>
								<line class="st18" x1="1528.1" y1="591.4" x2="1603.6" y2="592.5"/>
								<line class="st18" x1="1576" y1="612.7" x2="1647.2" y2="613.8"/>
								<line class="st18" x1="1800.4" y1="581.8" x2="1782.3" y2="581.8"/>
								<line class="st18" x1="1797.2" y1="556.2" x2="1785.5" y2="557.3"/>
								<line class="st18" x1="1799.3" y1="536" x2="1787.6" y2="536"/>
								<line class="st18" x1="1791.9" y1="598.8" x2="1781.3" y2="598.8"/>
								<line class="st18" x1="1844" y1="588.2" x2="1861" y2="588.2"/>
								<line class="st18" x1="1845.1" y1="572.2" x2="1864.2" y2="572.2"/>
								<line class="st18" x1="1852.5" y1="555.2" x2="1868.5" y2="555.2"/>
								<line class="st18" x1="1808.9" y1="611.6" x2="1857.8" y2="611.6"/>
								<line class="st18" x1="1569.1" y1="514.1" x2="1568" y2="618.6"/>
								<line class="st18" x1="1546.7" y1="491.7" x2="1546.7" y2="618.6"/>
								<line class="st18" x1="1804.1" y1="535.4" x2="1797.7" y2="621.8"/>
								<line class="st19" x1="1867.9" y1="546.1" x2="1857.3" y2="617.5"/>
								<line class="st19" x1="1885" y1="545" x2="1867.9" y2="620.7"/>
							</g>
							<line class="st18" x1="1068.7" y1="572.2" x2="1047.4" y2="572.2"/>
							<polygon class="st17" points="1736.1,361.7 1638.2,357.5 1645.7,441.6 1732.9,441.6 							"/>
							<polygon class="st17" points="1736.1,361.7 1698,388.8 1638.2,357.5 1693.5,285 							"/>
							<polygon class="st20" points="1639.3,356.4 1644.6,434.2 1624.4,367 							"/>
							<polygon class="st17" points="1444.6,441.6 1259.6,441.6 1259.6,370.2 1448.9,375.6 							"/>
							<polygon class="st17" points="1448.9,375.6 1338.7,409.7 1255.3,370.2 1350.7,286.1 							"/>
							<polygon class="st20" points="1259.6,367 1243.6,380.9 1247.9,442.7 1259.6,442.7 							"/>
							<polygon class="st17" points="1069.2,566.3 850.1,566.3 850.1,505.6 1072.4,522.7 							"/>
							<polygon class="st17" points="1072.4,522.7 937.1,547.8 850.1,505.6 963,422.9 							"/>
						</g>
						<g id="o">
							<ellipse class="st21" cx="963.4" cy="473.6" rx="18.6" ry="18.6"/>
							
								<linearGradient id="SVGID_00000119119239705505466930000004724177924277876132_" gradientUnits="userSpaceOnUse" x1="958.7109" y1="702.4818" x2="953.261" y2="677.0217" gradientTransform="matrix(0.7749 -0.5142 0.5917 0.8915 -191.5884 344.6475)">
								<stop  offset="7.000000e-02" style="stop-color:#CCE0F4"/>
								<stop  offset="0.14" style="stop-color:#C6DDF3"/>
								<stop  offset="0.23" style="stop-color:#B5D7F0"/>
								<stop  offset="0.34" style="stop-color:#99CCEB"/>
								<stop  offset="0.45" style="stop-color:#72BCE5"/>
								<stop  offset="0.57" style="stop-color:#41A9DC"/>
								<stop  offset="0.65" style="stop-color:#1E9CD7"/>
								<stop  offset="0.87" style="stop-color:#0075BE"/>
								<stop  offset="0.99" style="stop-color:#005B97"/>
								<stop  offset="1" style="stop-color:#0061A0"/>
							</linearGradient>
							<path style="fill:url(#SVGID_00000119119239705505466930000004724177924277876132_);" d="M953.8,464.3
								c5.1-5,13.5-4.6,18.8,0.9s5.4,13.9,0.2,18.8c-5.1,5-13.5,4.6-18.8-0.9C948.8,477.6,948.7,469.2,953.8,464.3z"/>
						</g>
						<g id="q">
							<rect x="1601" y="528" class="st23" width="41.5" height="64"/>
							<polygon class="st23" points="1780.7,600.5 1750.9,600.5 1750.9,528 1788.2,526.9 							"/>
							<rect x="1744.6" y="528" class="st16" width="6.4" height="68.2"/>
							<rect x="1639.3" y="601.5" class="st16" width="104.2" height="3.2"/>
							<rect x="1618" y="591.9" class="st17" width="144.7" height="9.6"/>
							<rect x="1642.5" y="604.7" class="st17" width="101" height="5.3"/>
							<rect x="1641.4" y="554.6" class="st17" width="103.2" height="4.3"/>
							<rect x="1642.5" y="533.3" class="st24" width="102.1" height="21.3"/>
							<polygon class="st24" points="1744.6,591.9 1666.2,591.9 1642.5,591.9 1642.5,561 1744.6,561 							"/>
							<rect x="1642.5" y="558.9" class="st16" width="102.1" height="2.1"/>
							<rect x="1642.5" y="528" class="st17" width="102.1" height="5.3"/>
						</g>
						<g id="r">
							<polygon class="st16" points="1715.8,435.2 1656.3,435.2 1656.3,380.9 1718,380.9 							"/>
							<polygon class="st24" points="1709.5,433.1 1675.9,433.1 1659.5,433.1 1659.5,411.8 1709.5,411.8 							"/>
							<rect x="1659.5" y="387.3" class="st24" width="48.9" height="14.9"/>
							<polygon class="st25" points="1684.5,422.5 1659.5,433.1 1709.5,433.1 1709.5,411.8 							"/>
						</g>
						<g id="s">
							<rect x="1233" y="512" class="st23" width="39.3" height="75.7"/>
							<rect x="1443.6" y="513.1" class="st23" width="42.5" height="76.7"/>
							<rect x="1271.3" y="515.2" class="st23" width="174.4" height="6.4"/>
							<rect x="1272.3" y="541.8" class="st17" width="174.4" height="5.3"/>
							<rect x="1272.3" y="547.2" class="st16" width="6.4" height="39.4"/>
							<rect x="1272.3" y="523.7" class="st16" width="6.4" height="18.1"/>
							<rect x="1272.3" y="521.6" class="st16" width="172.3" height="4.3"/>
							<rect x="1278.7" y="525.8" class="st24" width="165.9" height="16"/>
							<rect x="1278.7" y="546.1" class="st24" width="165.9" height="39.4"/>
							<rect x="1259.6" y="585.5" class="st17" width="194.6" height="8.5"/>
							<rect x="1273.4" y="594" class="st17" width="171.2" height="7.5"/>
							<polygon class="st16" points="1439.3,602.6 1283,602.6 1275.5,601.5 1444.6,601.5 							"/>
							<rect x="1258.5" y="593" class="st16" width="195.7" height="1.1"/>
							<polygon class="st25" points="1334,546.1 1299.3,585.4 1341.8,585.1 1382.9,546.1 							"/>
							<polygon class="st25" points="1416.6,548 1376.6,584.5 1376.2,585.4 1411.7,585.8 1444.6,546.1 1418.1,546.1 1417.1,547.2 
															"/>
							<polygon class="st25" points="1337.4,541.7 1354,525.8 1398.8,525.8 1385.9,542.1 							"/>
							<polygon class="st25" points="1421.2,541.7 1433.6,525.9 1444.6,525.8 1444.6,541.8 							"/>
						</g>
						<polygon class="st25" points="1695.2,561.1 1669,592 1744.6,591.9 1744.6,561 						"/>
						<g id="t">
							<polygon class="st23" points="1809.4,594 1841.3,594 1845.6,554.6 1813.7,554.6 							"/>
							<polygon class="st24" points="1838.2,589.8 1811.6,589.8 1814.8,560 1842.4,560 							"/>
							<rect x="1809.4" y="594" class="st23" width="31.9" height="5.3"/>
							<rect x="1809.4" y="602.6" class="st23" width="21.3" height="3.2"/>
							<rect x="1809.4" y="599.4" class="st16" width="33" height="3.2"/>
							<rect x="1809.4" y="605.8" class="st16" width="21.3" height="1.1"/>
							<rect x="1841.3" y="591.9" class="st16" width="1.1" height="10.7"/>
							<polygon class="st25" points="1811.6,589.8 1842.4,560 1838.2,589.8 							"/>
						</g>
						<g id="u">
							<polygon class="st23" points="1425.5,437.4 1267,437.4 1264.9,379.8 1434,383 							"/>
							<polygon class="st24" points="1392.5,406.5 1306.4,406.5 1306.4,388.4 1394.7,389.4 							"/>
							<rect x="1306.4" y="413.9" class="st24" width="86.2" height="20.2"/>
							<rect x="1301.1" y="388.4" class="st16" width="5.3" height="46.9"/>
							<rect x="1392.5" y="388.4" class="st16" width="4.2" height="46.9"/>
							<polygon class="st25" points="1337.5,434 1357.2,414 1392.5,413.9 1392.5,434.2 							"/>
							<polygon class="st25" points="1359.5,406.3 1378.7,389.2 1392.4,389.4 1392.5,406.5 							"/>
						</g>
						<g id="v">
							<rect x="1097.9" y="550.4" class="st26" width="62.8" height="40.5"/>
							
								<linearGradient id="SVGID_00000055695096655643642460000013995101676992104113_" gradientUnits="userSpaceOnUse" x1="216.7812" y1="585.215" x2="246.5111" y2="622.785" gradientTransform="matrix(-1 0 0 -1 1357 1168)">
								<stop  offset="0.1" style="stop-color:#CCE0F4"/>
								<stop  offset="0.17" style="stop-color:#C6DDF3"/>
								<stop  offset="0.25" style="stop-color:#B5D7F0"/>
								<stop  offset="0.35" style="stop-color:#99CCEB"/>
								<stop  offset="0.46" style="stop-color:#72BCE5"/>
								<stop  offset="0.58" style="stop-color:#41A9DC"/>
								<stop  offset="0.65" style="stop-color:#1E9CD7"/>
								<stop  offset="0.87" style="stop-color:#0075BE"/>
								<stop  offset="0.99" style="stop-color:#005B97"/>
								<stop  offset="1" style="stop-color:#0061A0"/>
							</linearGradient>
							
								<rect x="1105.4" y="550.4" style="fill:url(#SVGID_00000055695096655643642460000013995101676992104113_);stroke:#1D1D1B;stroke-width:0.2;" width="47.9" height="37.3"/>
							<rect x="1091.5" y="590.9" class="st16" width="73.4" height="7.5"/>
						</g>
						<g id="x">
							<g id="y">
								<path class="st28" d="M930.4,551.4h63.8c1.5,0,2.7,1.2,2.7,2.7v76.7c0,1.5-1.2,2.7-2.7,2.7h-63.8c-1.5,0-2.7-1.2-2.7-2.7
									v-76.7C927.7,552.6,928.9,551.4,930.4,551.4z"/>
								<ellipse class="st28" cx="962.3" cy="556.2" rx="34.6" ry="40"/>
							</g>
							<polygon class="st25" points="978.8,623.9 948,623.9 948,610.7 948,592.3 948,573.8 978.8,573.8 978.8,574.2 978.8,593.3 
															"/>
							<polygon class="st24" points="948,589.8 965,573.8 978.8,573.8 978.8,595.1 948,623.9 							"/>
							<polygon class="st24" points="977.7,615.4 972.4,623.9 978.8,623.9 978.8,615.4 							"/>
							<path class="st25" d="M982,552.5c0,9.6,3.2,7.5-18.1,7.5c-17,0-16,1.1-16-7.5c0-5.3,8.2-13.9,17-13.9c4.2,0,8.3,1.5,11.4,3.8
								C979.8,545,982,548.6,982,552.5L982,552.5z"/>
							<path class="st24" d="M976.7,542.9L966,560h14.9c0.3,0.1,0.7,0.2,1.1,0c1.8-0.8,1.3-7.1-1.1-11.7
								C979.6,545.7,977.9,543.9,976.7,542.9z"/>
						</g>
						<path class="st10" d="M954.3,514.1c0,0-19.1,4.3-27.7,20.2s-6.4,9.6-9.6,29.8l0.1,33.6l11.7,0.6c-0.4-9.6-0.7-19.2-1.1-28.9
							v-17c1.4-5.3,2.8-10.7,4.2-16c1.8-3,4.5-6.9,8.5-10.7c3-2.8,6-4.9,8.5-6.4c6.2-1.8,10.2-2.7,12.8-3.2c1,0.2,2.5,0,4.2,0
							c2.1,0,1.4-0.7,2.1-1.1C963.9,514.8,958.6,514.5,954.3,514.1L954.3,514.1z"/>
						<polygon class="st16" points="839.5,636.7 917.1,636.7 917.1,591.9 839.5,605.8 						"/>
						<path class="st16" d="M869.2,621.8h-17c-7,0-12.8-5.8-12.8-12.8v-3.2c0-13.9,5.7-12.8,12.8-12.8h17c7,0,12.8,5.8,12.8,12.8
							v3.2C882,616,876.3,621.8,869.2,621.8z"/>
						<rect x="848" y="591.9" class="st16" width="69.1" height="19.2"/>
						<rect x="995.8" y="594" class="st16" width="74.5" height="39.4"/>
						<path class="st16" d="M991.9,594h15.3c3.1,0,5.7,2.5,5.7,5.7v24.9c0,3.1-2.5,5.7-5.7,5.7h-15.3c-3.1,0-5.7-2.5-5.7-5.7v-24.9
							C986.2,596.6,988.8,594,991.9,594z"/>
						<path class="st16" d="M1047.2,597.2h15.3c3.1,0,5.7,2.5,5.7,5.7v24.9c0,3.1-2.5,5.7-5.7,5.7h-15.3c-3.1,0-5.7-2.5-5.7-5.7
							v-24.9C1041.6,599.8,1044.1,597.2,1047.2,597.2z"/>
						<path class="st16" d="M1058.9,594h15.3c3.1,0,5.7,2.5,5.7,5.7v24.9c0,3.1-2.5,5.7-5.7,5.7h-15.3c-3.1,0-5.7-2.5-5.7-5.7v-24.9
							C1053.2,596.6,1055.8,594,1058.9,594z"/>
						<rect x="986.2" y="621.8" class="st16" width="93.6" height="11.7"/>
						<rect x="917.1" y="593" class="st10" width="11.7" height="40.5"/>
					</g>
					<g id="a_x60_">
						<polygon class="st29" points="868.2,653.7 707.6,677.2 658.7,676.1 						"/>
						<path class="st29" d="M663.5,675h42.4c2.7,0,4.8,2.2,4.8,4.8v94.8c0,2.7-2.2,4.8-4.8,4.8h-42.4c-2.7,0-4.8-2.2-4.8-4.8v-94.8
							C658.7,677.2,660.8,675,663.5,675z"/>
						<polygon class="st30" points="867.1,663.3 708.7,775.2 708.7,672.9 868.2,653.7 						"/>
					</g>
					<g id="aa">
						<rect x="853.3" y="643.1" class="st31" width="17" height="17"/>
						<g id="ab">
							<polygon class="st32" points="915,759.2 711.9,762.5 709.7,775.2 915,771 							"/>
							<polygon class="st33" points="917.1,759.2 714,762.5 727.4,756 917.1,752.9 							"/>
							<polygon class="st31" points="912.8,752.9 726.7,756 726.7,734.7 911.8,735.8 							"/>
							<polygon class="st34" points="919.2,726.2 753.6,727.3 726.7,734.7 915.9,735.8 							"/>
							<polygon class="st31" points="920.3,727.3 753.3,727.3 753.3,712.4 919.2,709.2 							"/>
							<polygon class="st35" points="923.5,703.8 776.3,706 753.3,712.4 920,711.3 							"/>
							<polygon class="st31" points="922.3,703.8 774.6,706 775.8,692.1 923.5,690 							"/>
							<polygon class="st35" points="927.7,685.7 797,685.7 775.7,692.1 924.2,690 							"/>
							<rect x="794.8" y="675" class="st31" width="134" height="10.7"/>
							<polygon class="st35" points="930.9,667.6 816,668.7 794.8,675 929.7,675 							"/>
							<polygon class="st31" points="1027.6,650.5 870.3,649.5 870.3,643.1 1044.7,644.3 							"/>
							<polygon class="st35" points="1022.4,649.7 870.3,649.5 812.9,669.7 920,671.6 							"/>
							<polygon class="st35" points="1074.5,635.6 853.3,636.7 853.3,643.1 1051.1,644.2 							"/>
							<rect x="917.1" y="632.4" class="st35" width="69.1" height="6.4"/>
							<polygon class="st35" points="1064.9,638.8 986.2,637.8 986.2,633.5 1079.8,633.5 							"/>
						</g>
					</g>
					<g id="ac">
						<path class="st30" d="M988.7,692l-21.6,75.8v-98l78.7-20.2L996,682.1C992.4,684.4,989.9,688,988.7,692L988.7,692z"/>
						<polygon class="st29" points="1045.8,649.5 967.1,672.9 911.8,670.8 1060.7,641 						"/>
						<path class="st36" d="M914.2,670.8h50.5c1.9,0,3.5,1.6,3.5,3.5v93.2c0,1.9-1.6,3.5-3.5,3.5h-50.5c-1.9,0-3.5-1.6-3.5-3.5
							v-93.2C910.7,672.3,912.3,670.8,914.2,670.8z"/>
					</g>
				</g>
			</g>
			<g id="ad">
				<polygon class="st15" points="591.8,636.8 594.5,592.9 640,583.5 644,637.5 				"/>
				<path class="st4" d="M704.2,541c0-9.7-8.8-17.5-19.6-17.5c-1.9,0-3.7,0.2-5.5,0.7c-0.5-5.1-3.3-9.9-7.9-12.9
					c-5.4-3.5-12.1-3.5-17.5-0.6c-1.7-12-11-21.2-22.3-21.2c-6.3,0-12,2.9-16.1,7.5c-2.8-12.9-15.4-22.5-30.5-22.5
					c-17.2,0-31.1,12.5-31.1,28c0,3.2,0.6,6.2,1.7,9c-0.2,0-0.4,0-0.7,0c-12.2,0-22.1,9.2-22.1,20.5c0,7.8,4.7,14.6,11.6,18
					c-4.6,3.3-7.5,8.5-7.5,14.5c0,9.9,8.3,18,18.6,18c0.8,0,1.6-0.1,2.3-0.2c-1.2,1.7-1.8,3.6-1.8,5.7c0,7.5,8.8,13.5,19.6,13.5
					c6.2,0,11.6-2,15.2-5c2,0.6,4.1,1.1,6.2,1.5c2.3,0.4,4.7,0.6,7.2,0.6c10.2,0,19.6-3.4,26.9-9c2.3,4.6,8.9,8,16.7,8
					c8.4,0,15.4-3.9,17.1-9c0.3,0,0.6,0,0.9,0c15.8,0,28.6-9.8,28.6-22c0-3.3-0.9-6.4-2.6-9.2C698.9,554.8,704.2,548.5,704.2,541
					L704.2,541z M609.7,520.9c-0.4,0-0.8-0.1-1.2-0.1c0.3-0.3,0.7-0.7,1-1.1C609.5,520.1,609.6,520.5,609.7,520.9L609.7,520.9z
					 M576.7,529.7c0-0.1,0-0.2,0-0.2c0.1,0,0.2,0,0.2,0.1C576.8,529.6,576.7,529.7,576.7,529.7L576.7,529.7z"/>
			</g>
			<g>
				<path class="st37" d="M422.8,906c-18-52.5-25.8-96.5-57.8-126.3c38.6-18.2,63.8-48.2,63.8-82.2c0-30.3-20-57.5-51.7-75.9
					c-1.2-2.5-2.5-5-4-7.3c9.7-11.2,13.5-29.8,13.5-44.2c0-22.1-25.9-9.8-49.1,0c-7,2.9-11.4,4.7-14.2,6c-13.4-4.8-28.2-7.5-44-7.5
					s-29.8,2.5-42.9,7.1c-10.2-11.1-27-23.8-34.4-26.6c-15.5-6-21.5,39.2-14,54c0.8,1.6,1.5,3.1,2.2,4.4c-3.3,4.2-6.1,8.7-8.3,13.4
					c-32.4,18.4-53,45.9-53,76.7c0,34.6,26.1,65.2,65.9,83.2C167,811,147,855.9,135.9,900c-23.1,92,11,151,150,155
					C363.7,1057.2,458.9,1011,422.8,906L422.8,906z"/>
				<path class="st38" d="M199.9,856.3c-2.7,5.8-13.1,2-25.8,0.6c-28.2-2.9-24-4.8-16-20.2C171,812,162,817,184,836.1
					C193.6,844.4,202.6,850.5,199.9,856.3z"/>
				<path class="st38" d="M357.4,848.7c-1.9-6.1,9-8.8,17.8-17.5c18.6-18.3,17.6-14.3,24.5,4.5c4.8,13,8.9,14-18,15.2
					C369.4,851.6,359.3,854.8,357.4,848.7L357.4,848.7z"/>
				<path class="st38" d="M179.9,914.3c-2.7,5.8-13.3-1.9-25.8,0.6c-25.2,5.1-22.9,1-18.2-14.9c5-17,3-31,28-5.9
					C172.9,903.1,182.6,908.5,179.9,914.3L179.9,914.3z"/>
				<path class="st38" d="M372.7,900.3c-0.6-6.3,12.4-5.1,21.9-13.6c19.1-17.1,18.2-12.1,23.2,3.7c5,15.6,13.2,28.2-21.1,19.2
					C384.4,906.4,373.3,906.7,372.7,900.3L372.7,900.3z"/>
				<ellipse class="st39" cx="324.5" cy="659.5" rx="36.1" ry="32.5"/>
				<ellipse class="st39" cx="239.2" cy="661.5" rx="36.1" ry="32.5"/>
				<ellipse class="st40" cx="248.8" cy="670.5" rx="18.6" ry="18.5"/>
				<ellipse class="st40" cx="318" cy="669.5" rx="18.6" ry="18.5"/>
				<ellipse class="st41" cx="256.8" cy="677" rx="3.5" ry="4"/>
				<ellipse class="st41" cx="312" cy="679" rx="3.5" ry="4"/>
				<ellipse class="st41" cx="249.8" cy="673.5" rx="1.5" ry="1.5"/>
				<ellipse class="st41" cx="316" cy="672.5" rx="1.5" ry="1.5"/>
				
					<ellipse transform="matrix(0.8671 -0.4982 0.4982 0.8671 -289.0487 193.1986)" class="st37" cx="217.5" cy="638.2" rx="43.7" ry="19.5"/>
				
					<ellipse transform="matrix(0.3484 -0.9373 0.9373 0.3484 -370.0742 720.1033)" class="st37" cx="332.9" cy="626.2" rx="19.5" ry="43.7"/>
				<path class="st42" d="M311.5,700c0,5.8-14,17-22.1,17c-11.4,0-28.1-8.7-28.1-14.5s8-8.5,21.1-10.5
					C293.6,690.3,311.5,694.2,311.5,700z"/>
				<path class="st43" d="M381.1,587c1.2-6.4,6.5-33.6-12.1-11.8c-4.6,5.4-4.9,5.5-12.1,11.8c-12.8,11.2-3.3,18.4,4.9,23.6
					C367.4,614.2,376.2,612.4,381.1,587L381.1,587z"/>
				<path class="st44" d="M226.5,576.2c8.5,8.2,1.2,11-8.6,15.6c-8.8,4.2-10.6,9-13.2-12c-1.6-12.8-6.6-14.8-4.5-20.5
					C203.1,551.7,220.7,570.6,226.5,576.2L226.5,576.2z"/>
				<path d="M462.5,656.5c-15.5,3.4-30.9,7.8-45.8,13.3s-29.5,12-43.5,19.4c-7.9,4.2-15.6,8.7-23.2,13.5c-1.6,1-0.1,3.6,1.5,2.6
					c13.3-8.4,27.2-16,41.5-22.5c14.4-6.6,29.3-12.2,44.5-16.7c8.5-2.5,17.1-4.8,25.8-6.7C465.2,659,464.4,656.1,462.5,656.5
					L462.5,656.5L462.5,656.5z"/>
				<path d="M354,716.5c27-9.9,55.4-16.4,84-19.2c8.1-0.8,16.3-1.3,24.5-1.5c1.9,0,1.9-3,0-3c-29.1,0.7-58.1,5.1-86,13.1
					c-7.9,2.3-15.6,4.8-23.3,7.6C351.4,714.2,352.2,717.1,354,716.5L354,716.5L354,716.5z"/>
				<path d="M355.9,728.6c28.6-3.3,56.1,7.6,80.8,21c7,3.8,13.9,7.8,20.8,11.8c1.7,1,3.2-1.6,1.5-2.6c-24.7-14.3-50.3-29-79.1-32.8
					c-8-1.1-16-1.2-24-0.3C354,725.9,354,728.9,355.9,728.6L355.9,728.6L355.9,728.6z"/>
				<path d="M221,708.9c-29.5-8.8-60.1-14.2-90.8-16.2c-8.8-0.6-17.6-0.8-26.3-0.8c-1.9,0-1.9,3,0,3c30.7,0,61.4,3.4,91.3,10.3
					c8.4,1.9,16.8,4.1,25,6.6C222,712.3,222.8,709.4,221,708.9L221,708.9z"/>
				<path d="M217.6,719.3c-29-3.9-58.5-7-87.6-2.5c-8,1.2-16,3.1-23.7,5.6c-1.8,0.6-1,3.5,0.8,2.9c27.4-9,56.7-8.8,85.2-6
					c8.2,0.8,16.4,1.8,24.5,2.9c0.8,0.1,1.6-0.2,1.9-1C218.8,720.4,218.4,719.4,217.6,719.3L217.6,719.3L217.6,719.3z"/>
				<path d="M216.1,733.7c-12.7,0.2-24.8,4.3-36.7,8.5c-11.6,4.1-23.3,8.2-34.6,13.2c-6.3,2.8-12.6,5.9-18.5,9.4
					c-1.7,1-0.2,3.6,1.5,2.6c10.5-6.2,21.6-11,33-15.3c5.6-2.1,11.3-4.2,17-6.2s11.8-4.2,17.8-5.9c6.7-1.9,13.6-3.2,20.5-3.3
					C218,736.7,218,733.7,216.1,733.7L216.1,733.7L216.1,733.7z"/>
				<path class="st45" d="M363.1,917c19.1,79.5-35.5,95.5-79.2,95.5s-99.3-8-79.2-95.5c11.8-51.4,35.5-95.5,79.2-95.5
					S350.8,865.7,363.1,917z"/>
				<path class="st37" d="M410.1,998c0,0,48.9,11,62.9-15c14.5-26.8,10-23-5-55c-7.7-16.3,1.1-37.1,10-47.6
					c8-9.4,25.1-41.4,49.1-34.4c24.1,7-14.8,23.4-20.1,26c-2,1-4,5-5,6c-6.1,6.1-13.9,24.4-15,35s10.2,34.7,14,42
					c13,25-18.6,61.9-46.1,65c-32.7,3.6-57.9,1.5-57.2-2S410.1,998,410.1,998L410.1,998z"/>
				<path class="st45" d="M527.2,845.5c-4.2-1-13-0.6-14.8,0.9c-0.5,0.1-1.1,0.2-1.6,0.4l-2.7,1.3c-0.1,0-0.1,0.1-0.2,0.1
					c-0.7,0.1-1.4,0.4-2,0.8l-2.5,1.7c-1.2,1-2.1,1.8-2.7,2.5L496,857c-3,4-3,1,4,8.5l3.2,3.9c1.9,2.3,0.8,4.6,7.8,0.7l7.1-3.1
					c3.7-1.9,6-3.2,7.2-4.1l3.8-1.9C535.3,856.7,540.2,849,527.2,845.5L527.2,845.5z"/>
				<path d="M287.5,718.3c0.2,4,0.3,8.1-1,11.9s-4.5,6.2-7.9,8.3c-7.3,4.5-14,9.6-19.8,16c-1.3,1.4,0.8,3.6,2.1,2.1
					c3-3.3,6.3-6.4,9.8-9.2s7.4-4.9,11.1-7.4c3.5-2.3,6.3-5.2,7.6-9.2s1.2-8.4,1-12.5C290.4,716.4,287.4,716.3,287.5,718.3
					L287.5,718.3L287.5,718.3z"/>
				<path d="M287,728.7c-0.4,1.6-1.6,4.1-0.9,5.7c0.7,1.5,2.5,1.5,3.9,1.6c3.7,0.3,7.3,1.2,10.7,2.6s6.5,3.4,9.2,5.8
					c3,2.6,5.3,5.9,8.2,8.5c1.4,1.3,3.5-0.8,2.1-2.1c-2.7-2.5-4.8-5.4-7.5-7.9c-2.5-2.3-5.3-4.3-8.3-5.9s-6.2-2.7-9.4-3.4
					c-1.6-0.3-3.3-0.6-5-0.7c-0.3,0-0.8-0.1-1.1-0.1c-0.3-0.1-0.3-0.1,0,0.1l0.1-0.5c0.5-0.8,0.6-2.3,0.8-3.2
					C290.4,727.6,287.5,726.8,287,728.7L287,728.7L287,728.7z"/>
			</g>
		</g>
	</g>
</g>
<g id="ag">
	<g id="ah">
	</g>
</g>
<g id="ai">
</g>
<g id="aj">
</g>
<g id="ak">
</g>
<g id="al">
</g>
<g id="am">
</g>
<g id="an">
	<g id="ao">
	</g>
</g>
<g id="ap">
</g>
</svg>
